<?xml version="1.0" standalone="no"?>
<!DOCTYPE svg PUBLIC "-//W3C//DTD SVG 1.1//EN" "http://www.w3.org/Graphics/SVG/1.1/DTD/svg11.dtd" >
<svg xmlns="http://www.w3.org/2000/svg" xmlns:xlink="http://www.w3.org/1999/xlink" version="1.1">
<metadata>
Created by FontForge 20201107 at Sun Dec 10 23:07:02 2006
 By Unknown
Typeface (c) 2006 Zdenek Gromnica, Groovy, All Rights Reserved
</metadata>
<defs>
<font id="InfraRed" horiz-adv-x="713" >
  <font-face 
    font-family="InfraRed"
    font-weight="400"
    font-stretch="normal"
    units-per-em="2048"
    panose-1="2 0 0 0 0 0 0 0 0 0"
    ascent="1638"
    descent="-410"
    x-height="1264"
    cap-height="1264"
    bbox="-35 -486 2155 1854"
    underline-thickness="150"
    underline-position="-292"
    unicode-range="U+0020-F005"
  />
<missing-glyph horiz-adv-x="1024" 
d="M128 0v1854h768v-1854h-768zM256 128h512v1598h-512v-1598z" />
    <glyph glyph-name=".notdef" horiz-adv-x="1024" 
d="M128 0v1854h768v-1854h-768zM256 128h512v1598h-512v-1598z" />
    <glyph glyph-name=".null" horiz-adv-x="0" 
 />
    <glyph glyph-name="nonmarkingreturn" 
 />
    <glyph glyph-name="space" unicode=" " 
 />
    <glyph glyph-name="exclam" unicode="!" horiz-adv-x="480" 
d="M396 1242q0 -40 -13 -156q-38 -353 -67 -715q-11 -7 -28 -7t-28 7q-29 362 -67 715q-12 116 -12 156q0 52 107 52q108 0 108 -52zM413 91q0 -49 -35.5 -82t-89.5 -33q-52 0 -87 34t-35 81q0 49 34 82t88 33q56 0 90.5 -31.5t34.5 -83.5z" />
    <glyph glyph-name="quotedbl" unicode="&#x22;" horiz-adv-x="737" 
d="M643 1337q0 -14 -11 -80l-60 -375q-11 -6 -24 -6q-17 0 -27 6l-61 373q-11 64 -11 82q0 44 97 44t97 -44zM303 1337q0 -15 -10 -80l-61 -375q-10 -6 -23 -6q-18 0 -28 6l-60 373q-12 72 -12 82q0 44 98 44q96 0 96 -44z" />
    <glyph glyph-name="numbersign" unicode="#" horiz-adv-x="943" 
d="M1010 883l-17 -107h-223l-69 -297h215l-21 -108h-220l-86 -371h-78l86 371h-255l-86 -371h-80l86 371h-241l22 108h245l71 297h-236l17 107h243l75 331h80l-76 -331h254l76 331h78l-76 -331h216zM692 776h-253l-69 -297h254z" />
    <glyph glyph-name="dollar" unicode="$" horiz-adv-x="890" 
d="M938 347q0 -286 -368 -341v-164h-75v158q-181 0 -341 78q-23 88 -62 253l52 5q117 -256 351 -276v497q-171 69 -238 120q-113 87 -113 214q0 136 103 221q93 77 248 96v148h75v-142q67 -1 267 -39l47 -241l-55 -6q-54 203 -259 227v-453q182 -64 256 -122
q112 -88 112 -233zM495 733v422q-214 -24 -214 -208q0 -122 214 -214zM782 275q0 106 -52 160q-41 43 -160 90v-462q212 44 212 212z" />
    <glyph glyph-name="percent" unicode="%" horiz-adv-x="1694" 
d="M1718 354q0 -146 -82 -254q-93 -124 -247 -124q-149 0 -244 126q-85 111 -85 252q0 147 82 255q93 122 247 122q160 0 250 -120q79 -105 79 -257zM1363 1220l-871 -1298l-69 45l870 1294zM755 860q0 -146 -83 -255q-93 -122 -247 -122q-148 0 -243 125q-85 111 -85 252
q0 146 82 254q93 123 246 123q159 0 250 -121q80 -105 80 -256zM1563 346q0 331 -172 331q-98 0 -144 -117q-32 -83 -32 -194q0 -124 32 -211q45 -124 144 -124q97 0 142 121q30 83 30 194zM600 847q0 336 -172 336q-97 0 -143 -118q-33 -84 -33 -193q0 -123 32 -211
q46 -124 144 -124q97 0 141 118q31 82 31 192z" />
    <glyph glyph-name="ampersand" unicode="&#x26;" horiz-adv-x="1494" 
d="M1518 763q-100 -7 -147 -31q-59 -29 -279 -335q256 -241 363 -423l-12 -15q-196 27 -254 82q-25 30 -73 87q-45 53 -121 134q-230 -291 -464 -291q-169 0 -290 91q-130 97 -130 248q0 126 116 231q72 64 237 152q-197 124 -197 266q0 129 101 219t243 90q132 0 222 -72
q94 -75 94 -192q0 -91 -87 -160q-32 -25 -173 -101q86 -55 378 -301q150 206 150 275q0 34 -159 46v44h482v-44zM770 1010q0 83 -47 138q-51 60 -140 60q-79 0 -126 -58q-42 -52 -42 -125q0 -106 202 -249q153 86 153 234zM952 310q-176 171 -431 349q-233 -133 -233 -303
q0 -112 87.5 -186.5t211.5 -74.5q194 0 365 215z" />
    <glyph glyph-name="quotesingle" unicode="'" horiz-adv-x="391" 
d="M419 1175q0 -103 -91 -181q-80 -67 -201 -95l-20 37q183 76 183 193q0 66 -46 99q-20 14 -86 38q-47 16 -47 39q0 33 27.5 54.5t63.5 21.5q94 0 157 -60q60 -60 60 -146z" />
    <glyph glyph-name="parenleft" unicode="(" horiz-adv-x="614" 
d="M658 -290l-28 -37q-447 279 -447 854q0 579 447 854l28 -39q-179 -126 -268 -370q-74 -203 -74 -445q0 -238 76 -445q90 -243 266 -372z" />
    <glyph glyph-name="parenright" unicode=")" horiz-adv-x="640" 
d="M613 527q0 -575 -447 -854l-28 37q342 244 342 817q0 580 -342 815l28 39q447 -275 447 -854z" />
    <glyph glyph-name="asterisk" unicode="*" horiz-adv-x="777" 
d="M833 973l-306 -49l90 -288l-41 -16l-163 271l-280 -158l-28 37l237 193l-243 216l32 33l275 -167l138 275l41 -11l-62 -288l310 -4v-44z" />
    <glyph glyph-name="plus" unicode="+" horiz-adv-x="1138" 
d="M1219 494h-497v-494h-116v494h-499v87h499v448h116v-448h497v-87z" />
    <glyph glyph-name="comma" unicode="," horiz-adv-x="538" 
d="M419 47q0 -107 -91 -189q-78 -70 -203 -107l-22 41q174 78 174 200q0 121 -144 148l-14 14q-12 8 -12 31q0 36 33 61t73 25q92 0 151 -73q55 -66 55 -151z" />
    <glyph glyph-name="hyphen" unicode="-" horiz-adv-x="612" 
d="M656 385h-527v111h527v-111z" />
    <glyph glyph-name="hyphen" unicode="&#x2010;" horiz-adv-x="612" 
d="M656 385h-527v111h527v-111z" />
    <glyph glyph-name="period" unicode="." horiz-adv-x="509" 
d="M387 95q0 -51 -36 -85t-93 -34q-53 0 -90 35t-37 84q0 50 36.5 83.5t90.5 33.5q58 0 93.5 -32.5t35.5 -84.5z" />
    <glyph glyph-name="slash" unicode="/" horiz-adv-x="582" 
d="M624 1294l-458 -1381h-123l458 1381h123z" />
    <glyph glyph-name="zero" unicode="0" horiz-adv-x="902" 
d="M952 607q0 -237 -88 -408q-116 -223 -348 -223q-230 0 -348 224q-90 173 -90 407q0 238 89 408q116 222 349 222q236 0 350 -221q86 -166 86 -409zM768 607q0 572 -252 572q-254 0 -254 -572q0 -199 39 -341q63 -231 215 -231q252 0 252 572z" />
    <glyph glyph-name="one" unicode="1" horiz-adv-x="715" 
d="M646 0h-372v1012q0 49 -4 58q-9 22 -52 23l-149 4v39q173 37 373 101v-1062q0 -88 58 -113q30 -13 146 -17v-45z" />
    <glyph glyph-name="two" unicode="2" horiz-adv-x="978" 
d="M936 234l-70 -234h-797v26q206 196 279 272q154 158 249 294q91 128 91 258q0 271 -271 271q-134 0 -279 -181l-41 31q129 171 161 197q85 69 247 69q157 0 255 -88.5t98 -229.5q0 -133 -91 -266q-54 -79 -195 -221l-297 -298h415q82 0 117 18q45 22 75 95z" />
    <glyph glyph-name="three" unicode="3" horiz-adv-x="975" 
d="M905 475q0 -190 -153 -326q-142 -126 -356 -162q-62 -11 -74 -11q-57 0 -134 32q-90 37 -90 82q0 25 26 56t53 31q12 0 100.5 -51.5t173.5 -51.5q130 0 207 105q69 92 69 214q0 272 -275 272q-104 0 -171 -29l-12 45q371 128 371 284q0 175 -203 175q-150 0 -250 -162
l-43 32l88 126q34 47 121 76q76 25 148 25q136 0 220 -59q94 -64 94 -184q0 -76 -82 -138q-32 -24 -154 -87v-4q139 -15 229 -88q97 -79 97 -202z" />
    <glyph glyph-name="four" unicode="4" horiz-adv-x="1034" 
d="M968 342h-207v-167q0 -86 47 -111q30 -15 136 -19v-45h-349v342h-546v53q310 427 618 830h94v-791h207v-92zM595 434v591h-4q-211 -292 -404 -591h408z" />
    <glyph glyph-name="five" unicode="5" horiz-adv-x="989" 
d="M920 457q0 -196 -187 -341q-180 -140 -400 -140q-61 0 -137 31q-91 37 -91 85q0 24 24.5 53.5t49.5 29.5t110 -50.5t179 -50.5q134 0 211 93q70 84 70 208q0 310 -362 310q-85 0 -209 -39l70 568h610l-31 -134h-515l-54 -335q149 53 245 53q179 0 294 -88
q123 -93 123 -253z" />
    <glyph glyph-name="six" unicode="6" horiz-adv-x="1024" 
d="M954 405q0 -180 -121 -302q-126 -127 -322 -127q-202 0 -322 156q-105 138 -105 329q0 244 145 442q150 203 401 282q141 44 277 64l11 -48q-506 -74 -621 -532q66 31 131 61q80 33 142 33q172 0 278 -101t106 -257zM776 336q0 139 -64 226q-74 101 -220 101
q-123 0 -209 -52q-12 -59 -12 -164q0 -148 60 -263q76 -149 221 -149q224 0 224 301z" />
    <glyph glyph-name="seven" unicode="7" horiz-adv-x="1039" 
d="M970 1192q-308 -595 -580 -1196l-171 -20l-10 20q341 545 618 1084h-476q-95 0 -124 -17q-37 -23 -61 -114h-52q21 142 34 265h806z" />
    <glyph glyph-name="eight" unicode="8" horiz-adv-x="995" 
d="M925 344q0 -155 -121.5 -261.5t-294.5 -106.5q-169 0 -282 85q-120 90 -120 240q0 202 297 323q-250 119 -250 293q0 138 114 230q110 90 263 90q144 0 241 -73q103 -77 103 -205q0 -97 -76 -166q-27 -25 -165 -110q291 -140 291 -339zM716 965q0 93 -51 151
q-55 63 -156 63q-91 0 -146 -60q-51 -55 -51 -141q0 -83 95 -160q44 -35 176 -108q133 82 133 255zM765 278q0 114 -97 197q-55 46 -208 123q-183 -101 -183 -288q0 -112 65 -189q72 -86 191 -86q114 0 176 72q56 66 56 171z" />
    <glyph glyph-name="nine" unicode="9" horiz-adv-x="1015" 
d="M946 750q0 -237 -130 -431q-136 -204 -373 -288q-171 -60 -301 -60l-7 40q493 96 612 572q-68 -36 -135 -72q-79 -36 -148 -36q-168 0 -273 101t-105 254q0 166 127.5 286.5t309.5 120.5q210 0 324 -154q99 -133 99 -333zM759 755q0 424 -267 424q-116 0 -177 -89
q-53 -75 -53 -188q0 -128 71 -218q79 -103 215 -103q113 0 203 57q8 60 8 117z" />
    <glyph glyph-name="colon" unicode=":" horiz-adv-x="472" 
d="M387 728q0 -52 -36 -85.5t-93 -33.5q-53 0 -90 35t-37 84t36.5 83t90.5 34q58 0 93.5 -32.5t35.5 -84.5zM387 95q0 -51 -36 -85t-93 -34q-53 0 -90 35t-37 84q0 50 36.5 83.5t90.5 33.5q58 0 93.5 -32.5t35.5 -84.5z" />
    <glyph glyph-name="semicolon" unicode=";" horiz-adv-x="502" 
d="M387 728q0 -52 -36 -85.5t-93 -33.5q-53 0 -90 35t-37 84t36.5 83t90.5 34q58 0 93.5 -32.5t35.5 -84.5zM419 47q0 -107 -91 -189q-78 -70 -203 -107l-22 41q174 78 174 200q0 121 -144 148l-14 14q-12 8 -12 31q0 36 33 61t73 25q92 0 151 -73q55 -66 55 -151z" />
    <glyph glyph-name="less" unicode="&#x3c;" horiz-adv-x="1252" 
d="M1198 0l-1069 492v87l1069 493v-94l-946 -439v-6l946 -440v-93z" />
    <glyph glyph-name="equal" unicode="=" horiz-adv-x="1138" 
d="M1219 687h-1112v87h1112v-87zM1219 301h-1112v88h1112v-88z" />
    <glyph glyph-name="greater" unicode="&#x3e;" horiz-adv-x="1118" 
d="M1198 492l-1069 -492v93l946 440v6l-946 439v94l1069 -493v-87z" />
    <glyph glyph-name="question" unicode="?" horiz-adv-x="790" 
d="M846 1053q0 -126 -113 -245q-2 -2 -210 -181q-114 -97 -114 -170q0 -50 42 -91l-2 -14l-27 -19h-17q-86 60 -86 143q0 95 165.5 263.5t165.5 268.5q0 96 -79 159q-76 59 -185 59q-62 0 -134 -25q-26 -23 -92 -144l-13 -7l-46 4l-7 14l81 220q123 72 268 72q169 0 280 -75
q123 -84 123 -232zM551 96q0 -48 -36.5 -80.5t-89.5 -32.5q-51 0 -88.5 33t-37.5 80t37 80.5t89 33.5q53 0 89.5 -33.5t36.5 -80.5z" />
    <glyph glyph-name="at" unicode="@" horiz-adv-x="1429" 
d="M1525 788q0 -208 -148.5 -346.5t-376.5 -138.5q-92 0 -92 65q0 41 17 104q15 51 29 102l-4 2q-54 -75 -174 -167q-138 -106 -212 -106q-88 0 -88 141q0 196 150 362q159 176 371 176q29 0 84.5 -12t83.5 -12q-115 -482 -115 -538q0 -47 46 -47q116 0 223 116t107 309
q0 196 -143 311q-136 109 -356 109q-300 0 -491 -187q-186 -183 -186 -457q0 -248 156 -390.5t429 -142.5q175 0 324 60l15 -43q-189 -87 -400 -87q-299 0 -485 152q-192 158 -192 425q0 344 266 549q256 197 562 197q256 0 424 -136q176 -141 176 -370zM1024 897
q-47 17 -125 17q-118 0 -202 -168q-69 -139 -69 -262q0 -74 43 -74q87 0 286 238q43 138 67 249z" />
    <glyph glyph-name="A" unicode="A" horiz-adv-x="1344" 
d="M1387 0h-521v45q146 -8 146 52q0 43 -148 384h-436q-126 -307 -126 -365q0 -77 158 -71v-45h-460v45q109 6 156 56q27 28 76 142l443 1033l49 18q67 -159 433 -1062q41 -101 78 -136q50 -48 152 -51v-45zM837 555l-190 478h-4l-187 -478h381z" />
    <glyph glyph-name="B" unicode="B" horiz-adv-x="1120" 
d="M1178 373q0 -206 -203 -301q-155 -72 -407 -72h-495v45q141 4 176 58q22 36 22 179v982h392q425 0 425 -282q0 -102 -86 -181q-79 -73 -196 -97v-4q163 -18 262 -97q110 -88 110 -230zM897 961q0 247 -308 247h-105q-33 0 -33 -40v-454h136q310 0 310 247zM970 349
q0 155 -114 236q-103 72 -280 72h-125v-556q0 -27 36 -33h58q209 0 300 45q125 63 125 236z" />
    <glyph glyph-name="C" unicode="C" horiz-adv-x="1318" 
d="M1379 338q-32 -106 -111 -312q-275 -55 -404 -55q-396 0 -589 206q-183 195 -183 438q0 309 239 498q228 181 574 181q188 0 388 -50q23 -152 38 -295l-54 -4q-43 152 -135.5 218t-266.5 66q-277 0 -428 -162q-141 -151 -141 -408q0 -261 132 -431q151 -193 428 -193
q172 0 286 83q99 73 172 226z" />
    <glyph glyph-name="D" unicode="D" horiz-adv-x="1407" 
d="M1475 689q0 -349 -271 -529q-240 -160 -640 -160h-495v45q143 3 178 57q24 35 24 180v982h417q346 0 550 -127q237 -148 237 -448zM1266 638q0 302 -153.5 436t-486.5 134h-142q-33 0 -33 -40v-1067q0 -33 33 -33q379 0 562 113q220 134 220 457z" />
    <glyph glyph-name="E" unicode="E" horiz-adv-x="1175" 
d="M1157 312q-37 -160 -80 -312h-1017v45h125q14 0 53 44q33 38 33 136v814q0 139 -86 181h-103v44h942l23 -284h-56q-26 123 -68 166q-53 55 -181 55h-258q-33 0 -33 -33v-472h218q128 0 161 21q40 26 52 135h54v-386h-54q-10 109 -52 136q-33 22 -161 22h-218v-523
q0 -33 33 -33h406q17 0 54 19.5t51 33.5q54 50 103 191h59z" />
    <glyph glyph-name="F" unicode="F" horiz-adv-x="1006" 
d="M1041 980l-54 -5q-32 146 -88.5 186t-225.5 40h-189q-30 0 -30 -33v-493h234q129 0 161 21q41 26 52 134h53v-383h-53q-11 110 -51 136q-32 20 -162 20h-234v-321q0 -148 30 -186q39 -48 193 -51v-45h-593v45q135 4 169 62q20 35 20 175v982h744z" />
    <glyph glyph-name="G" unicode="G" horiz-adv-x="1405" 
d="M1459 520q-85 -8 -109 -34q-19 -21 -19 -260q0 -117 13 -178q-316 -77 -469 -77q-327 0 -549 174q-234 183 -234 473q0 305 232 494q223 182 564 182q243 0 411 -50q8 -101 34 -303l-51 -5q-41 159 -139.5 226t-281.5 67q-556 0 -556 -585q0 -222 132 -408
q141 -201 463 -201q203 0 239 60q12 19 12 90v379h308v-44z" />
    <glyph glyph-name="H" unicode="H" horiz-adv-x="1475" 
d="M1572 0h-374v628h-747v-346q0 -135 23 -173q36 -61 171 -64v-45h-374v982q0 148 -22 182q-34 52 -180 56v44h382v-558h747v276q0 98 -7 131q-17 83 -77 97q-33 8 -106 10v44h371v-982q0 -140 21 -176q35 -57 172 -61v-45z" />
    <glyph glyph-name="I" unicode="I" horiz-adv-x="602" 
d="M645 0h-374v982q0 147 -22 182q-33 52 -171 56v44h373v-982q0 -135 23 -173q36 -61 171 -64v-45z" />
    <glyph glyph-name="J" unicode="J" horiz-adv-x="571" 
d="M476 295q0 -168 -31 -261q-42 -124 -159 -209q-103 -74 -217 -100l-22 45q191 75 224 241q24 121 24 338v633q0 149 -23 183q-34 51 -180 55v44h384v-969z" />
    <glyph glyph-name="K" unicode="K" horiz-adv-x="1442" 
d="M1479 1264l-28 -44q-177 -4 -242 -28q-113 -40 -583 -476q258 -271 312 -326q238 -243 322 -296q68 -43 142 -49v-45h-318q-281 297 -633 650v-368q0 -142 25 -179q36 -55 178 -58v-45h-383v982q0 146 -21 180q-34 54 -177 58v44h378v-610q82 62 297 265q241 228 241 263
q0 26 -140 38v44h630z" />
    <glyph glyph-name="L" unicode="L" horiz-adv-x="1192" 
d="M1118 306q-32 -154 -75 -306h-970v45q141 4 176 59q22 35 22 178v982h383v-44q-143 -2 -179 -58q-24 -36 -24 -180v-702q0 -141 29 -171q26 -28 167 -41q41 -3 59 -3q177 0 243 48q59 43 116 199z" />
    <glyph glyph-name="M" unicode="M" horiz-adv-x="1751" 
d="M1828 1220q-131 -2 -165 -40q-30 -33 -30 -155q0 -202 12 -512q10 -256 20 -513h-379v45q135 5 166 51q19 30 19 164q0 9 -8 806h-10l-526 -1044h-54l-497 1017h-4q-27 -683 -27 -770q0 -137 27 -171q34 -42 180 -53v-45h-505v45q89 7 131 29q38 20 50 72q23 107 37 370
l38 748h138l520 -1002l512 1002h355v-44z" />
    <glyph glyph-name="N" unicode="N" horiz-adv-x="1430" 
d="M1525 1220q-166 -2 -186 -100q-17 -82 -17 -371v-762h-56l-933 1025h-4v-522q0 -277 16 -344q12 -47 60.5 -72.5t150.5 -28.5v-45h-515v45q167 1 185 101q17 94 17 370v748h84l905 -980h4v980h289v-44z" />
    <glyph glyph-name="O" unicode="O" horiz-adv-x="1601" 
d="M1510 650q0 -293 -199 -484q-202 -195 -524 -195q-304 0 -501 187q-194 184 -194 460q0 288 208.5 482t524.5 194q302 0 496 -187q189 -182 189 -457zM1301 562q0 667 -531 667q-237 0 -362 -177q-107 -151 -107 -377q0 -247 126 -428q147 -212 406 -212q230 0 357 166
q111 144 111 361z" />
    <glyph glyph-name="P" unicode="P" horiz-adv-x="1048" 
d="M1122 917q0 -159 -123 -269q-118 -105 -296 -123q-80 -7 -97 -3l-159 37v-277q0 -146 33 -185q39 -49 193 -52v-45h-600v45q138 4 172 60q22 35 22 177v982h361q494 0 494 -347zM920 910q0 298 -344 298h-92q-13 0 -25 -13.5t-12 -26.5v-551q52 -23 162 -23q155 0 236 91
q75 83 75 225z" />
    <glyph glyph-name="Q" unicode="Q" horiz-adv-x="1449" 
d="M1553 -288l-469 72l-340 188q-292 21 -472 201t-180 445q0 287 208.5 481.5t524.5 194.5q301 0 495 -187q190 -183 190 -457q0 -232 -132 -407q-138 -182 -378 -245zM1301 578q0 651 -531 651q-237 0 -363 -178q-106 -150 -106 -376q0 -219 100 -390q117 -202 334 -242
l127 31l56 -31q383 62 383 535z" />
    <glyph glyph-name="R" unicode="R" horiz-adv-x="1403" 
d="M1342 0h-318l-364 559l-209 -2v-275q0 -135 23 -173q36 -61 171 -64v-45h-572v45q141 4 176 59q22 35 22 178v982h357q482 0 482 -315q0 -241 -285 -340l337 -486q33 -47 77 -61q4 -1 103 -17v-45zM916 922q0 136 -87.5 211t-237.5 75h-107q-33 0 -33 -40v-555h125
q164 0 252 80.5t88 228.5z" />
    <glyph glyph-name="S" unicode="S" horiz-adv-x="910" 
d="M948 362q0 -177 -143 -287q-136 -104 -335 -104q-142 0 -322 70q-5 24 -62 293l54 8q71 -142 137 -208q99 -99 234 -99q267 0 267 251q0 129 -113 209q-31 22 -244 122q-162 77 -233 170q-48 63 -48 149q0 165 133 265q124 93 310 93q67 0 260 -47q13 -96 39 -263l-55 -6
q-61 251 -292 251q-105 0 -168.5 -60t-63.5 -155q0 -139 168 -223l310 -142q167 -103 167 -287z" />
    <glyph glyph-name="T" unicode="T" horiz-adv-x="1177" 
d="M1230 977l-54 -6q-33 146 -90 188t-224 42h-144v-919q0 -148 32 -186q40 -48 196 -51v-45h-628v45q153 3 191 52q29 37 29 185v919h-487v63h1162q0 -95 17 -287z" />
    <glyph glyph-name="U" unicode="U" horiz-adv-x="1396" 
d="M1339 1220q-164 -2 -185 -102q-13 -63 -17 -161q-3 -70 -2 -178q2 -165 2 -162q0 -646 -562 -646q-82 0 -180 23q-194 47 -274 194q-63 116 -63 319v757h369v-44q-136 -2 -169 -62q-20 -34 -20 -176v-406q0 -511 400 -511q274 0 363 238q50 133 50 444q0 292 -18 372
q-12 53 -53 75q-45 24 -157 26v44h516v-44z" />
    <glyph glyph-name="V" unicode="V" horiz-adv-x="1477" 
d="M1582 1264l-31 -44q-192 -4 -237 -39q-66 -51 -556 -1192h-64l-642 1503l298 -228q120 -297 434 -1032q366 868 366 921q0 47 -65 61q-52 11 -99 50h596z" />
    <glyph glyph-name="W" unicode="W" horiz-adv-x="2024" 
d="M2155 1264l-32 -44q-167 -5 -215 -32q-59 -33 -106 -169l-357 -1030h-58l-387 951l-355 -951h-60l-533 1503l298 -228l321 -995h4l345 976h51l388 -974h6q264 772 264 881q0 47 -60 60q-38 9 -95 52h581z" />
    <glyph glyph-name="X" unicode="X" horiz-adv-x="1448" 
d="M1406 0h-565v45q139 16 139 45q0 18 -322 478q-70 -98 -169 -249q-134 -203 -134 -230q0 -30 59 -39q5 -1 85 -5v-45h-489v45q89 5 140.5 26t94.5 71q57 66 372 489l-617 861q117 -75 350 -228q15 -10 370 -490q263 368 263 406q0 27 -146 40v44h481v-44
q-105 -6 -155 -32q-73 -38 -402 -476q124 -167 366 -506q63 -91 112 -121q59 -35 167 -40v-45z" />
    <glyph glyph-name="Y" unicode="Y" horiz-adv-x="1194" 
d="M1279 1220q-100 -6 -142 -37q-44 -34 -192 -261q-114 -176 -182 -294q-36 -64 -36 -105v-241q0 -147 30 -185q39 -49 193 -52v-45h-619v45q150 3 188 53q27 37 27 184v221q0 35 -6 50q-3 7 -41 67q-161 255 -499 872l297 -228q165 -272 391 -626q286 473 286 533
q0 27 -71 39q-48 5 -97 10v44h473v-44z" />
    <glyph glyph-name="Z" unicode="Z" horiz-adv-x="1260" 
d="M1260 312q-42 -203 -78 -312h-1122l-11 22l916 1179h-393q-191 0 -250 -39q-63 -41 -107 -201h-53q16 199 20 303h1018l11 -19l-908 -1169h620q31 0 82.5 15.5t73.5 32.5q70 54 127 199z" />
    <glyph glyph-name="bracketleft" unicode="[" horiz-adv-x="588" 
d="M630 -315h-342v1685h342v-47q-149 -6 -178 -22q-50 -28 -50 -146v-1256q0 -115 54 -145q32 -17 174 -23v-46z" />
    <glyph glyph-name="backslash" unicode="\" horiz-adv-x="672" 
d="M624 -87h-123l-437 1381h123z" />
    <glyph glyph-name="bracketright" unicode="]" horiz-adv-x="596" 
d="M507 -315h-341v46q86 4 119 9q81 13 100 46q9 15 9 113v1256q0 115 -30 138t-198 30v47h341v-1685z" />
    <glyph glyph-name="asciicircum" unicode="^" horiz-adv-x="1081" 
d="M1159 342h-121l-378 740l-379 -740h-111l449 872h91z" />
    <glyph glyph-name="underscore" unicode="_" horiz-adv-x="1004" 
d="M1075 -243h-1075v97h1075v-97z" />
    <glyph glyph-name="grave" unicode="`" horiz-adv-x="399" 
d="M419 1358q-183 -77 -183 -192q0 -108 151 -143q28 -6 28 -35q0 -76 -91 -76q-85 0 -151 65t-66 142q0 103 93 181q81 69 200 95z" />
    <glyph glyph-name="a" unicode="a" horiz-adv-x="1428" 
d="M1387 0h-521v45q146 -8 146 52q0 43 -148 384h-436q-126 -307 -126 -365q0 -77 158 -71v-45h-460v45q109 6 156 56q27 28 76 142l443 1033l49 18q67 -159 433 -1062q41 -101 78 -136q50 -48 152 -51v-45zM837 555l-190 478h-4l-187 -478h381z" />
    <glyph glyph-name="b" unicode="b" horiz-adv-x="1120" 
d="M1178 373q0 -206 -203 -301q-155 -72 -407 -72h-495v45q141 4 176 58q22 36 22 179v982h392q425 0 425 -282q0 -102 -86 -181q-79 -73 -196 -97v-4q163 -18 262 -97q110 -88 110 -230zM897 961q0 247 -308 247h-105q-33 0 -33 -40v-454h136q310 0 310 247zM970 349
q0 155 -114 236q-103 72 -280 72h-125v-556q0 -27 36 -33h58q209 0 300 45q125 63 125 236z" />
    <glyph glyph-name="c" unicode="c" horiz-adv-x="1318" 
d="M1379 338q-32 -106 -111 -312q-275 -55 -404 -55q-396 0 -589 206q-183 195 -183 438q0 309 239 498q228 181 574 181q188 0 388 -50q23 -152 38 -295l-54 -4q-43 152 -135.5 218t-266.5 66q-277 0 -428 -162q-141 -151 -141 -408q0 -261 132 -431q151 -193 428 -193
q172 0 286 83q99 73 172 226z" />
    <glyph glyph-name="d" unicode="d" horiz-adv-x="1407" 
d="M1475 689q0 -349 -271 -529q-240 -160 -640 -160h-495v45q143 3 178 57q24 35 24 180v982h417q346 0 550 -127q237 -148 237 -448zM1266 638q0 302 -153.5 436t-486.5 134h-142q-33 0 -33 -40v-1067q0 -33 33 -33q379 0 562 113q220 134 220 457z" />
    <glyph glyph-name="e" unicode="e" horiz-adv-x="1175" 
d="M1157 312q-37 -160 -80 -312h-1017v45h125q14 0 53 44q33 38 33 136v814q0 139 -86 181h-103v44h942l23 -284h-56q-26 123 -68 166q-53 55 -181 55h-258q-33 0 -33 -33v-472h218q128 0 161 21q40 26 52 135h54v-386h-54q-10 109 -52 136q-33 22 -161 22h-218v-523
q0 -33 33 -33h406q17 0 54 19.5t51 33.5q54 50 103 191h59z" />
    <glyph glyph-name="f" unicode="f" horiz-adv-x="1006" 
d="M1041 980l-54 -5q-32 146 -88.5 186t-225.5 40h-189q-30 0 -30 -33v-493h234q129 0 161 21q41 26 52 134h53v-383h-53q-11 110 -51 136q-32 20 -162 20h-234v-321q0 -148 30 -186q39 -48 193 -51v-45h-593v45q135 4 169 62q20 35 20 175v982h744z" />
    <glyph glyph-name="g" unicode="g" horiz-adv-x="1405" 
d="M1459 520q-85 -8 -109 -34q-19 -21 -19 -260q0 -117 13 -178q-316 -77 -469 -77q-327 0 -549 174q-234 183 -234 473q0 305 232 494q223 182 564 182q243 0 411 -50q8 -101 34 -303l-51 -5q-41 159 -139.5 226t-281.5 67q-556 0 -556 -585q0 -222 132 -408
q141 -201 463 -201q203 0 239 60q12 19 12 90v379h308v-44z" />
    <glyph glyph-name="h" unicode="h" horiz-adv-x="1475" 
d="M1572 0h-374v628h-747v-346q0 -135 23 -173q36 -61 171 -64v-45h-374v982q0 148 -22 182q-34 52 -180 56v44h382v-558h747v276q0 98 -7 131q-17 83 -77 97q-33 8 -106 10v44h371v-982q0 -140 21 -176q35 -57 172 -61v-45z" />
    <glyph glyph-name="i" unicode="i" horiz-adv-x="602" 
d="M645 0h-374v982q0 147 -22 182q-33 52 -171 56v44h373v-982q0 -135 23 -173q36 -61 171 -64v-45z" />
    <glyph glyph-name="j" unicode="j" horiz-adv-x="571" 
d="M476 295q0 -168 -31 -261q-42 -124 -159 -209q-103 -74 -217 -100l-22 45q191 75 224 241q24 121 24 338v633q0 149 -23 183q-34 51 -180 55v44h384v-969z" />
    <glyph glyph-name="k" unicode="k" horiz-adv-x="1442" 
d="M1479 1264l-28 -44q-177 -4 -242 -28q-113 -40 -583 -476q258 -271 312 -326q238 -243 322 -296q68 -43 142 -49v-45h-318q-281 297 -633 650v-368q0 -142 25 -179q36 -55 178 -58v-45h-383v982q0 146 -21 180q-34 54 -177 58v44h378v-610q82 62 297 265q241 228 241 263
q0 26 -140 38v44h630z" />
    <glyph glyph-name="l" unicode="l" horiz-adv-x="1192" 
d="M1118 306q-32 -154 -75 -306h-970v45q141 4 176 59q22 35 22 178v982h383v-44q-143 -2 -179 -58q-24 -36 -24 -180v-702q0 -141 29 -171q26 -28 167 -41q41 -3 59 -3q177 0 243 48q59 43 116 199z" />
    <glyph glyph-name="m" unicode="m" horiz-adv-x="1751" 
d="M1828 1220q-131 -2 -165 -40q-30 -33 -30 -155q0 -202 12 -512q10 -256 20 -513h-379v45q135 5 166 51q19 30 19 164q0 9 -8 806h-10l-526 -1044h-54l-497 1017h-4q-27 -683 -27 -770q0 -137 27 -171q34 -42 180 -53v-45h-505v45q89 7 131 29q38 20 50 72q23 107 37 370
l38 748h138l520 -1002l512 1002h355v-44z" />
    <glyph glyph-name="n" unicode="n" horiz-adv-x="1430" 
d="M1525 1220q-166 -2 -186 -100q-17 -82 -17 -371v-762h-56l-933 1025h-4v-522q0 -277 16 -344q12 -47 60.5 -72.5t150.5 -28.5v-45h-515v45q167 1 185 101q17 94 17 370v748h84l905 -980h4v980h289v-44z" />
    <glyph glyph-name="o" unicode="o" horiz-adv-x="1601" 
d="M1510 650q0 -293 -199 -484q-202 -195 -524 -195q-304 0 -501 187q-194 184 -194 460q0 288 208.5 482t524.5 194q302 0 496 -187q189 -182 189 -457zM1301 562q0 667 -531 667q-237 0 -362 -177q-107 -151 -107 -377q0 -247 126 -428q147 -212 406 -212q230 0 357 166
q111 144 111 361z" />
    <glyph glyph-name="p" unicode="p" horiz-adv-x="1048" 
d="M1122 917q0 -159 -123 -269q-118 -105 -296 -123q-80 -7 -97 -3l-159 37v-277q0 -146 33 -185q39 -49 193 -52v-45h-600v45q138 4 172 60q22 35 22 177v982h361q494 0 494 -347zM920 910q0 298 -344 298h-92q-13 0 -25 -13.5t-12 -26.5v-551q52 -23 162 -23q155 0 236 91
q75 83 75 225z" />
    <glyph glyph-name="q" unicode="q" horiz-adv-x="1644" 
d="M1553 -288l-469 72l-340 188q-292 21 -472 201t-180 445q0 287 208.5 481.5t524.5 194.5q301 0 495 -187q190 -183 190 -457q0 -232 -132 -407q-138 -182 -378 -245zM1301 578q0 651 -531 651q-237 0 -363 -178q-106 -150 -106 -376q0 -219 100 -390q117 -202 334 -242
l127 31l56 -31q383 62 383 535z" />
    <glyph glyph-name="r" unicode="r" horiz-adv-x="1403" 
d="M1342 0h-318l-364 559l-209 -2v-275q0 -135 23 -173q36 -61 171 -64v-45h-572v45q141 4 176 59q22 35 22 178v982h357q482 0 482 -315q0 -241 -285 -340l337 -486q33 -47 77 -61q4 -1 103 -17v-45zM916 922q0 136 -87.5 211t-237.5 75h-107q-33 0 -33 -40v-555h125
q164 0 252 80.5t88 228.5z" />
    <glyph glyph-name="s" unicode="s" horiz-adv-x="910" 
d="M948 362q0 -177 -143 -287q-136 -104 -335 -104q-142 0 -322 70q-5 24 -62 293l54 8q71 -142 137 -208q99 -99 234 -99q267 0 267 251q0 129 -113 209q-31 22 -244 122q-162 77 -233 170q-48 63 -48 149q0 165 133 265q124 93 310 93q67 0 260 -47q13 -96 39 -263l-55 -6
q-61 251 -292 251q-105 0 -168.5 -60t-63.5 -155q0 -139 168 -223l310 -142q167 -103 167 -287z" />
    <glyph glyph-name="t" unicode="t" horiz-adv-x="1177" 
d="M1230 977l-54 -6q-33 146 -90 188t-224 42h-144v-919q0 -148 32 -186q40 -48 196 -51v-45h-628v45q153 3 191 52q29 37 29 185v919h-487v63h1162q0 -95 17 -287z" />
    <glyph glyph-name="u" unicode="u" horiz-adv-x="1396" 
d="M1339 1220q-164 -2 -185 -102q-13 -63 -17 -161q-3 -70 -2 -178q2 -165 2 -162q0 -646 -562 -646q-82 0 -180 23q-194 47 -274 194q-63 116 -63 319v757h369v-44q-136 -2 -169 -62q-20 -34 -20 -176v-406q0 -511 400 -511q274 0 363 238q50 133 50 444q0 292 -18 372
q-12 53 -53 75q-45 24 -157 26v44h516v-44z" />
    <glyph glyph-name="v" unicode="v" horiz-adv-x="1477" 
d="M1582 1264l-31 -44q-192 -4 -237 -39q-66 -51 -556 -1192h-64l-642 1503l298 -228q120 -297 434 -1032q366 868 366 921q0 47 -65 61q-52 11 -99 50h596z" />
    <glyph glyph-name="w" unicode="w" horiz-adv-x="2024" 
d="M2155 1264l-32 -44q-167 -5 -215 -32q-59 -33 -106 -169l-357 -1030h-58l-387 951l-355 -951h-60l-533 1503l298 -228l321 -995h4l345 976h51l388 -974h6q264 772 264 881q0 47 -60 60q-38 9 -95 52h581z" />
    <glyph glyph-name="x" unicode="x" horiz-adv-x="1448" 
d="M1406 0h-565v45q139 16 139 45q0 18 -322 478q-70 -98 -169 -249q-134 -203 -134 -230q0 -30 59 -39q5 -1 85 -5v-45h-489v45q89 5 140.5 26t94.5 71q57 66 372 489l-617 861q117 -75 350 -228q15 -10 370 -490q263 368 263 406q0 27 -146 40v44h481v-44
q-105 -6 -155 -32q-73 -38 -402 -476q124 -167 366 -506q63 -91 112 -121q59 -35 167 -40v-45z" />
    <glyph glyph-name="y" unicode="y" horiz-adv-x="1194" 
d="M1279 1220q-100 -6 -142 -37q-44 -34 -192 -261q-114 -176 -182 -294q-36 -64 -36 -105v-241q0 -147 30 -185q39 -49 193 -52v-45h-619v45q150 3 188 53q27 37 27 184v221q0 35 -6 50q-3 7 -41 67q-161 255 -499 872l297 -228q165 -272 391 -626q286 473 286 533
q0 27 -71 39q-48 5 -97 10v44h473v-44z" />
    <glyph glyph-name="z" unicode="z" horiz-adv-x="1260" 
d="M1260 312q-42 -203 -78 -312h-1122l-11 22l916 1179h-393q-191 0 -250 -39q-63 -41 -107 -201h-53q16 199 20 303h1018l11 -19l-908 -1169h620q31 0 82.5 15.5t73.5 32.5q70 54 127 199z" />
    <glyph glyph-name="braceleft" unicode="{" horiz-adv-x="576" 
d="M617 -327q-291 0 -291 253q0 67 15.5 200t15.5 199q0 95 -42.5 134t-148.5 44v45q106 12 147 48q44 40 44 134q0 66 -15.5 198.5t-15.5 199.5q0 256 283 253h8v-44q-172 -25 -172 -171q0 -90 15 -199q26 -193 26 -212q0 -181 -172 -224v-8q172 -41 172 -226
q0 -64 -20.5 -200t-20.5 -209q0 -144 172 -170v-45z" />
    <glyph glyph-name="bar" unicode="|" horiz-adv-x="441" 
d="M335 -486h-128v1945h128v-1945z" />
    <glyph glyph-name="braceright" unicode="}" horiz-adv-x="588" 
d="M630 503q-102 -5 -146.5 -46t-44.5 -132q0 -68 14.5 -205t14.5 -205q0 -244 -280 -242h-10v45q173 28 173 168q0 115 -29 307q-12 85 -12 104q0 185 172 226v8q-172 46 -172 224q0 22 12 107q29 192 29 305q0 152 -173 170v44q290 0 290 -241q0 -69 -14.5 -205.5
t-14.5 -204.5q0 -91 46 -132q43 -37 145 -50v-45z" />
    <glyph glyph-name="asciitilde" unicode="~" horiz-adv-x="1137" 
d="M1213 557q-121 -208 -314 -208q-89 0 -241 67.5t-239 67.5q-124 0 -238 -159l-67 52q143 204 340 204q90 0 235 -65t224 -65q127 0 236 156z" />
    <glyph glyph-name="exclamdown" unicode="&#xa1;" 
 />
    <glyph glyph-name="cent" unicode="&#xa2;" 
 />
    <glyph glyph-name="sterling" unicode="&#xa3;" 
 />
    <glyph glyph-name="currency" unicode="&#xa4;" 
 />
    <glyph glyph-name="yen" unicode="&#xa5;" 
 />
    <glyph glyph-name="brokenbar" unicode="&#xa6;" 
 />
    <glyph glyph-name="section" unicode="&#xa7;" 
 />
    <glyph glyph-name="dieresis" unicode="&#xa8;" 
 />
    <glyph glyph-name="copyright" unicode="&#xa9;" horiz-adv-x="1339" 
d="M1402 603q0 -248 -187 -421.5t-460 -173.5q-270 0 -459 175t-189 420q0 250 186 424t462 174q278 0 462.5 -173t184.5 -425zM1303 605q0 225 -148 374q-154 155 -400 155q-244 0 -399 -156q-149 -150 -149 -373q0 -220 151 -373q156 -158 397 -158q243 0 399 157
q149 152 149 374zM1086 475q-28 -101 -52 -176q-143 -37 -230 -37q-170 0 -288 90q-124 95 -124 247q0 157 121 253q116 93 291 93q167 0 234 -35q13 -64 25 -175l-39 -2q-62 164 -224 164q-129 0 -200 -86q-62 -77 -62 -198q0 -118 66 -204q75 -96 200 -96q177 0 241 168z
" />
    <glyph glyph-name="ordfeminine" unicode="&#xaa;" 
 />
    <glyph glyph-name="guillemotleft" unicode="&#xab;" 
 />
    <glyph glyph-name="logicalnot" unicode="&#xac;" 
 />
    <glyph glyph-name="registered" unicode="&#xae;" horiz-adv-x="1012" 
d="M1084 845q0 -188 -143 -318t-350 -130q-205 0 -348.5 131t-143.5 317q0 188 142 318.5t350 130.5q210 0 351.5 -129.5t141.5 -319.5zM997 846q0 164 -112 275q-115 116 -294 116q-177 0 -294 -116q-112 -112 -112 -275q0 -158 114 -272q118 -117 292 -117q175 0 293 116
q113 114 113 273zM852 596h-125l-143 219l-82 -1v-116q0 -49 10 -63q14 -20 65 -22v-17h-224v17q55 2 69 23q8 14 8 70v386h141q189 0 189 -124q0 -94 -111 -133l132 -191q16 -23 71 -31v-17zM684 958q0 113 -128 113q-26 0 -45 -3l-8 -6q-1 -8 -1 -16v-210h48
q134 0 134 122z" />
    <glyph glyph-name="degree" unicode="&#xb0;" horiz-adv-x="676" 
d="M724 763q0 -126 -88 -211q-91 -87 -230 -87q-132 0 -231 78q-104 82 -104 200q0 128 93.5 214t235.5 86q138 0 231 -78t93 -202zM570 728q0 101 -38 170q-49 90 -149 90q-77 0 -121 -72q-36 -59 -36 -134q0 -93 41 -168q51 -94 144 -94q159 0 159 208z" />
    <glyph glyph-name="plusminus" unicode="&#xb1;" 
 />
    <glyph glyph-name="acute" unicode="&#xb4;" horiz-adv-x="587" 
d="M519 1216q0 -18 -29 -41l-316 -247l-36 19l249 306q22 27 34 27q21 0 59.5 -23t38.5 -41z" />
    <glyph glyph-name="paragraph" unicode="&#xb6;" 
 />
    <glyph glyph-name="cedilla" unicode="&#xb8;" 
 />
    <glyph glyph-name="ordmasculine" unicode="&#xba;" 
 />
    <glyph glyph-name="guillemotright" unicode="&#xbb;" 
 />
    <glyph glyph-name="onequarter" unicode="&#xbc;" 
 />
    <glyph glyph-name="onehalf" unicode="&#xbd;" 
 />
    <glyph glyph-name="threequarters" unicode="&#xbe;" 
 />
    <glyph glyph-name="questiondown" unicode="&#xbf;" 
 />
    <glyph glyph-name="Agrave" unicode="&#xc0;" 
 />
    <glyph glyph-name="Aacute" unicode="&#xc1;" horiz-adv-x="1344" 
d="M991 1485q0 -17 -34 -28l-417 -130l-24 29l352 194q23 13 41 13q21 0 51.5 -30.5t30.5 -47.5zM1387 0h-521v45q146 -8 146 52q0 43 -148 384h-436q-126 -307 -126 -365q0 -77 158 -71v-45h-460v45q109 6 156 56q27 28 76 142l443 1033l49 18q67 -159 433 -1062
q41 -101 78 -136q50 -48 152 -51v-45zM837 555l-190 478h-4l-187 -478h381z" />
    <glyph glyph-name="Acircumflex" unicode="&#xc2;" 
 />
    <glyph glyph-name="Atilde" unicode="&#xc3;" 
 />
    <glyph glyph-name="Adieresis" unicode="&#xc4;" 
 />
    <glyph glyph-name="Aring" unicode="&#xc5;" 
 />
    <glyph glyph-name="Ccedilla" unicode="&#xc7;" 
 />
    <glyph glyph-name="Egrave" unicode="&#xc8;" 
 />
    <glyph glyph-name="Eacute" unicode="&#xc9;" horiz-adv-x="1175" 
d="M871 1486q0 -18 -34 -29l-418 -130l-23 29l353 194q22 13 41 13q21 0 51 -30.5t30 -46.5zM1157 312q-37 -160 -80 -312h-1017v45h125q14 0 53 44q33 38 33 136v814q0 139 -86 181h-103v44h942l23 -284h-56q-26 123 -68 166q-53 55 -181 55h-258q-33 0 -33 -33v-472h218
q128 0 161 21q40 26 52 135h54v-386h-54q-10 109 -52 136q-33 22 -161 22h-218v-523q0 -33 33 -33h406q17 0 54 19.5t51 33.5q54 50 103 191h59z" />
    <glyph glyph-name="Ecircumflex" unicode="&#xca;" 
 />
    <glyph glyph-name="Edieresis" unicode="&#xcb;" 
 />
    <glyph glyph-name="Igrave" unicode="&#xcc;" 
 />
    <glyph glyph-name="Iacute" unicode="&#xcd;" horiz-adv-x="602" 
d="M636 1485q0 -17 -34 -28l-417 -130l-23 29l351 194q23 13 41 13q21 0 51.5 -30.5t30.5 -47.5zM645 0h-374v982q0 147 -22 182q-33 52 -171 56v44h373v-982q0 -135 23 -173q36 -61 171 -64v-45z" />
    <glyph glyph-name="Icircumflex" unicode="&#xce;" 
 />
    <glyph glyph-name="Idieresis" unicode="&#xcf;" 
 />
    <glyph glyph-name="Eth" unicode="&#xd0;" 
 />
    <glyph glyph-name="Ntilde" unicode="&#xd1;" 
 />
    <glyph glyph-name="Ograve" unicode="&#xd2;" 
 />
    <glyph glyph-name="Oacute" unicode="&#xd3;" horiz-adv-x="1601" 
d="M1110 1485q0 -17 -35 -28l-417 -130l-24 29l353 194q23 13 41 13q21 0 51.5 -31t30.5 -47zM1510 650q0 -293 -199 -484q-202 -195 -524 -195q-304 0 -501 187q-194 184 -194 460q0 288 208.5 482t524.5 194q302 0 496 -187q189 -182 189 -457zM1301 562q0 667 -531 667
q-237 0 -362 -177q-107 -151 -107 -377q0 -247 126 -428q147 -212 406 -212q230 0 357 166q111 144 111 361z" />
    <glyph glyph-name="Ocircumflex" unicode="&#xd4;" horiz-adv-x="1601" 
 />
    <glyph glyph-name="Otilde" unicode="&#xd5;" 
 />
    <glyph glyph-name="Odieresis" unicode="&#xd6;" 
 />
    <glyph glyph-name="multiply" unicode="&#xd7;" 
 />
    <glyph glyph-name="Oslash" unicode="&#xd8;" 
 />
    <glyph glyph-name="Ugrave" unicode="&#xd9;" 
 />
    <glyph glyph-name="Uacute" unicode="&#xda;" horiz-adv-x="1396" 
d="M966 1488q0 -17 -35 -28l-417 -130l-24 28l353 195q22 13 40 13q22 0 52.5 -31t30.5 -47zM1339 1220q-164 -2 -185 -102q-13 -63 -17 -161q-3 -70 -2 -178q2 -165 2 -162q0 -646 -562 -646q-82 0 -180 23q-194 47 -274 194q-63 116 -63 319v757h369v-44q-136 -2 -169 -62
q-20 -34 -20 -176v-406q0 -511 400 -511q274 0 363 238q50 133 50 444q0 292 -18 372q-12 53 -53 75q-45 24 -157 26v44h516v-44z" />
    <glyph glyph-name="Ucircumflex" unicode="&#xdb;" 
 />
    <glyph glyph-name="Udieresis" unicode="&#xdc;" 
 />
    <glyph glyph-name="Yacute" unicode="&#xdd;" horiz-adv-x="1194" 
d="M966 1488q0 -17 -35 -28l-417 -130l-24 28l353 195q22 13 40 13q22 0 52.5 -31t30.5 -47zM1279 1220q-100 -6 -142 -37q-44 -34 -192 -261q-114 -176 -182 -294q-36 -64 -36 -105v-241q0 -147 30 -185q39 -49 193 -52v-45h-619v45q150 3 188 53q27 37 27 184v221
q0 35 -6 50q-3 7 -41 67q-161 255 -499 872l297 -228q165 -272 391 -626q286 473 286 533q0 27 -71 39q-48 5 -97 10v44h473v-44z" />
    <glyph glyph-name="Thorn" unicode="&#xde;" 
 />
    <glyph glyph-name="germandbls" unicode="&#xdf;" 
 />
    <glyph glyph-name="agrave" unicode="&#xe0;" 
 />
    <glyph glyph-name="aacute" unicode="&#xe1;" horiz-adv-x="1344" 
d="M991 1485q0 -17 -34 -28l-417 -130l-24 29l352 194q23 13 41 13q21 0 51.5 -30.5t30.5 -47.5zM1387 0h-521v45q146 -8 146 52q0 43 -148 384h-436q-126 -307 -126 -365q0 -77 158 -71v-45h-460v45q109 6 156 56q27 28 76 142l443 1033l49 18q67 -159 433 -1062
q41 -101 78 -136q50 -48 152 -51v-45zM837 555l-190 478h-4l-187 -478h381z" />
    <glyph glyph-name="acircumflex" unicode="&#xe2;" 
 />
    <glyph glyph-name="atilde" unicode="&#xe3;" 
 />
    <glyph glyph-name="adieresis" unicode="&#xe4;" 
 />
    <glyph glyph-name="aring" unicode="&#xe5;" 
 />
    <glyph glyph-name="ae" unicode="&#xe6;" 
 />
    <glyph glyph-name="ccedilla" unicode="&#xe7;" 
 />
    <glyph glyph-name="egrave" unicode="&#xe8;" 
 />
    <glyph glyph-name="eacute" unicode="&#xe9;" horiz-adv-x="1175" 
d="M871 1486q0 -18 -34 -29l-418 -130l-23 29l353 194q22 13 41 13q21 0 51 -30.5t30 -46.5zM1157 312q-37 -160 -80 -312h-1017v45h125q14 0 53 44q33 38 33 136v814q0 139 -86 181h-103v44h942l23 -284h-56q-26 123 -68 166q-53 55 -181 55h-258q-33 0 -33 -33v-472h218
q128 0 161 21q40 26 52 135h54v-386h-54q-10 109 -52 136q-33 22 -161 22h-218v-523q0 -33 33 -33h406q17 0 54 19.5t51 33.5q54 50 103 191h59z" />
    <glyph glyph-name="ecircumflex" unicode="&#xea;" 
 />
    <glyph glyph-name="edieresis" unicode="&#xeb;" 
 />
    <glyph glyph-name="igrave" unicode="&#xec;" 
 />
    <glyph glyph-name="iacute" unicode="&#xed;" horiz-adv-x="602" 
d="M636 1485q0 -17 -34 -28l-417 -130l-23 29l351 194q23 13 41 13q21 0 51.5 -30.5t30.5 -47.5zM645 0h-374v982q0 147 -22 182q-33 52 -171 56v44h373v-982q0 -135 23 -173q36 -61 171 -64v-45z" />
    <glyph glyph-name="icircumflex" unicode="&#xee;" 
 />
    <glyph glyph-name="idieresis" unicode="&#xef;" 
 />
    <glyph glyph-name="eth" unicode="&#xf0;" 
 />
    <glyph glyph-name="ntilde" unicode="&#xf1;" 
 />
    <glyph glyph-name="ograve" unicode="&#xf2;" 
 />
    <glyph glyph-name="oacute" unicode="&#xf3;" horiz-adv-x="1601" 
d="M1110 1485q0 -17 -35 -28l-417 -130l-24 29l353 194q23 13 41 13q21 0 51.5 -31t30.5 -47zM1510 650q0 -293 -199 -484q-202 -195 -524 -195q-304 0 -501 187q-194 184 -194 460q0 288 208.5 482t524.5 194q302 0 496 -187q189 -182 189 -457zM1301 562q0 667 -531 667
q-237 0 -362 -177q-107 -151 -107 -377q0 -247 126 -428q147 -212 406 -212q230 0 357 166q111 144 111 361z" />
    <glyph glyph-name="ocircumflex" unicode="&#xf4;" 
 />
    <glyph glyph-name="otilde" unicode="&#xf5;" 
 />
    <glyph glyph-name="odieresis" unicode="&#xf6;" 
 />
    <glyph glyph-name="divide" unicode="&#xf7;" 
 />
    <glyph glyph-name="oslash" unicode="&#xf8;" 
 />
    <glyph glyph-name="ugrave" unicode="&#xf9;" 
 />
    <glyph glyph-name="uacute" unicode="&#xfa;" horiz-adv-x="1396" 
d="M966 1488q0 -17 -35 -28l-417 -130l-24 28l353 195q22 13 40 13q22 0 52.5 -31t30.5 -47zM1339 1220q-164 -2 -185 -102q-13 -63 -17 -161q-3 -70 -2 -178q2 -165 2 -162q0 -646 -562 -646q-82 0 -180 23q-194 47 -274 194q-63 116 -63 319v757h369v-44q-136 -2 -169 -62
q-20 -34 -20 -176v-406q0 -511 400 -511q274 0 363 238q50 133 50 444q0 292 -18 372q-12 53 -53 75q-45 24 -157 26v44h516v-44z" />
    <glyph glyph-name="ucircumflex" unicode="&#xfb;" 
 />
    <glyph glyph-name="udieresis" unicode="&#xfc;" 
 />
    <glyph glyph-name="yacute" unicode="&#xfd;" horiz-adv-x="1194" 
d="M966 1488q0 -17 -35 -28l-417 -130l-24 28l353 195q22 13 40 13q22 0 52.5 -31t30.5 -47zM1279 1220q-100 -6 -142 -37q-44 -34 -192 -261q-114 -176 -182 -294q-36 -64 -36 -105v-241q0 -147 30 -185q39 -49 193 -52v-45h-619v45q150 3 188 53q27 37 27 184v221
q0 35 -6 50q-3 7 -41 67q-161 255 -499 872l297 -228q165 -272 391 -626q286 473 286 533q0 27 -71 39q-48 5 -97 10v44h473v-44z" />
    <glyph glyph-name="thorn" unicode="&#xfe;" 
 />
    <glyph glyph-name="ydieresis" unicode="&#xff;" 
 />
    <glyph glyph-name="Amacron" unicode="&#x100;" 
 />
    <glyph glyph-name="amacron" unicode="&#x101;" 
 />
    <glyph glyph-name="Abreve" unicode="&#x102;" 
 />
    <glyph glyph-name="abreve" unicode="&#x103;" 
 />
    <glyph glyph-name="Aogonek" unicode="&#x104;" 
 />
    <glyph glyph-name="aogonek" unicode="&#x105;" 
 />
    <glyph glyph-name="Cacute" unicode="&#x106;" 
 />
    <glyph glyph-name="cacute" unicode="&#x107;" 
 />
    <glyph glyph-name="Ccircumflex" unicode="&#x108;" 
 />
    <glyph glyph-name="ccircumflex" unicode="&#x109;" 
 />
    <glyph glyph-name="Ccaron" unicode="&#x10c;" horiz-adv-x="1318" 
d="M1119 1548l-269 -211h-38l-266 211l25 32l263 -125l260 125zM1379 338q-32 -106 -111 -312q-275 -55 -404 -55q-396 0 -589 206q-183 195 -183 438q0 309 239 498q228 181 574 181q188 0 388 -50q23 -152 38 -295l-54 -4q-43 152 -135.5 218t-266.5 66q-277 0 -428 -162
q-141 -151 -141 -408q0 -261 132 -431q151 -193 428 -193q172 0 286 83q99 73 172 226z" />
    <glyph glyph-name="ccaron" unicode="&#x10d;" horiz-adv-x="1318" 
d="M1119 1548l-269 -211h-38l-266 211l25 32l263 -125l260 125zM1379 338q-32 -106 -111 -312q-275 -55 -404 -55q-396 0 -589 206q-183 195 -183 438q0 309 239 498q228 181 574 181q188 0 388 -50q23 -152 38 -295l-54 -4q-43 152 -135.5 218t-266.5 66q-277 0 -428 -162
q-141 -151 -141 -408q0 -261 132 -431q151 -193 428 -193q172 0 286 83q99 73 172 226z" />
    <glyph glyph-name="Dcaron" unicode="&#x10e;" horiz-adv-x="1407" 
d="M1091 1548l-269 -211h-39l-265 211l25 32l262 -125l261 125zM1475 689q0 -349 -271 -529q-240 -160 -640 -160h-495v45q143 3 178 57q24 35 24 180v982h417q346 0 550 -127q237 -148 237 -448zM1266 638q0 302 -153.5 436t-486.5 134h-142q-33 0 -33 -40v-1067
q0 -33 33 -33q379 0 562 113q220 134 220 457z" />
    <glyph glyph-name="dcaron" unicode="&#x10f;" horiz-adv-x="1407" 
d="M1091 1548l-269 -211h-39l-265 211l25 32l262 -125l261 125zM1475 689q0 -349 -271 -529q-240 -160 -640 -160h-495v45q143 3 178 57q24 35 24 180v982h417q346 0 550 -127q237 -148 237 -448zM1266 638q0 302 -153.5 436t-486.5 134h-142q-33 0 -33 -40v-1067
q0 -33 33 -33q379 0 562 113q220 134 220 457z" />
    <glyph glyph-name="dcroat" unicode="&#x111;" 
 />
    <glyph glyph-name="Emacron" unicode="&#x112;" 
 />
    <glyph glyph-name="emacron" unicode="&#x113;" 
 />
    <glyph glyph-name="Ebreve" unicode="&#x114;" 
 />
    <glyph glyph-name="ebreve" unicode="&#x115;" 
 />
    <glyph glyph-name="Eogonek" unicode="&#x118;" 
 />
    <glyph glyph-name="eogonek" unicode="&#x119;" 
 />
    <glyph glyph-name="Ecaron" unicode="&#x11a;" horiz-adv-x="1175" 
d="M966 1548l-269 -211h-39l-265 211l25 32l262 -125l261 125zM1157 312q-37 -160 -80 -312h-1017v45h125q14 0 53 44q33 38 33 136v814q0 139 -86 181h-103v44h942l23 -284h-56q-26 123 -68 166q-53 55 -181 55h-258q-33 0 -33 -33v-472h218q128 0 161 21q40 26 52 135h54
v-386h-54q-10 109 -52 136q-33 22 -161 22h-218v-523q0 -33 33 -33h406q17 0 54 19.5t51 33.5q54 50 103 191h59z" />
    <glyph glyph-name="ecaron" unicode="&#x11b;" horiz-adv-x="1175" 
d="M966 1548l-269 -211h-39l-265 211l25 32l262 -125l261 125zM1157 312q-37 -160 -80 -312h-1017v45h125q14 0 53 44q33 38 33 136v814q0 139 -86 181h-103v44h942l23 -284h-56q-26 123 -68 166q-53 55 -181 55h-258q-33 0 -33 -33v-472h218q128 0 161 21q40 26 52 135h54
v-386h-54q-10 109 -52 136q-33 22 -161 22h-218v-523q0 -33 33 -33h406q17 0 54 19.5t51 33.5q54 50 103 191h59z" />
    <glyph glyph-name="Gcircumflex" unicode="&#x11c;" 
 />
    <glyph glyph-name="gcircumflex" unicode="&#x11d;" 
 />
    <glyph glyph-name="Gbreve" unicode="&#x11e;" 
 />
    <glyph glyph-name="gbreve" unicode="&#x11f;" 
 />
    <glyph glyph-name="Hcircumflex" unicode="&#x124;" 
 />
    <glyph glyph-name="hcircumflex" unicode="&#x125;" 
 />
    <glyph glyph-name="Hbar" unicode="&#x126;" 
 />
    <glyph glyph-name="hbar" unicode="&#x127;" 
 />
    <glyph glyph-name="Itilde" unicode="&#x128;" 
 />
    <glyph glyph-name="itilde" unicode="&#x129;" 
 />
    <glyph glyph-name="Imacron" unicode="&#x12a;" 
 />
    <glyph glyph-name="imacron" unicode="&#x12b;" 
 />
    <glyph glyph-name="Ibreve" unicode="&#x12c;" 
 />
    <glyph glyph-name="ibreve" unicode="&#x12d;" 
 />
    <glyph glyph-name="Iogonek" unicode="&#x12e;" 
 />
    <glyph glyph-name="iogonek" unicode="&#x12f;" 
 />
    <glyph glyph-name="dotlessi" unicode="&#x131;" 
 />
    <glyph glyph-name="IJ" unicode="&#x132;" 
 />
    <glyph glyph-name="ij" unicode="&#x133;" 
 />
    <glyph glyph-name="Jcircumflex" unicode="&#x134;" 
 />
    <glyph glyph-name="jcircumflex" unicode="&#x135;" 
 />
    <glyph glyph-name="kgreenlandic" unicode="&#x138;" 
 />
    <glyph glyph-name="Lacute" unicode="&#x139;" 
 />
    <glyph glyph-name="lacute" unicode="&#x13a;" 
 />
    <glyph glyph-name="Lcaron" unicode="&#x13d;" 
 />
    <glyph glyph-name="lcaron" unicode="&#x13e;" 
 />
    <glyph glyph-name="Ldot" unicode="&#x13f;" 
 />
    <glyph glyph-name="ldot" unicode="&#x140;" 
 />
    <glyph glyph-name="Lslash" unicode="&#x141;" 
 />
    <glyph glyph-name="lslash" unicode="&#x142;" 
 />
    <glyph glyph-name="Nacute" unicode="&#x143;" 
 />
    <glyph glyph-name="nacute" unicode="&#x144;" 
 />
    <glyph glyph-name="Ncaron" unicode="&#x147;" horiz-adv-x="1430" 
d="M1119 1542l-269 -212h-38l-266 212l25 31l263 -124l260 124zM1525 1220q-166 -2 -186 -100q-17 -82 -17 -371v-762h-56l-933 1025h-4v-522q0 -277 16 -344q12 -47 60.5 -72.5t150.5 -28.5v-45h-515v45q167 1 185 101q17 94 17 370v748h84l905 -980h4v980h289v-44z" />
    <glyph glyph-name="ncaron" unicode="&#x148;" horiz-adv-x="1430" 
d="M1119 1542l-269 -212h-38l-266 212l25 31l263 -124l260 124zM1525 1220q-166 -2 -186 -100q-17 -82 -17 -371v-762h-56l-933 1025h-4v-522q0 -277 16 -344q12 -47 60.5 -72.5t150.5 -28.5v-45h-515v45q167 1 185 101q17 94 17 370v748h84l905 -980h4v980h289v-44z" />
    <glyph glyph-name="napostrophe" unicode="&#x149;" 
 />
    <glyph glyph-name="Eng" unicode="&#x14a;" 
 />
    <glyph glyph-name="eng" unicode="&#x14b;" 
 />
    <glyph glyph-name="Omacron" unicode="&#x14c;" 
 />
    <glyph glyph-name="omacron" unicode="&#x14d;" 
 />
    <glyph glyph-name="Obreve" unicode="&#x14e;" 
 />
    <glyph glyph-name="obreve" unicode="&#x14f;" 
 />
    <glyph glyph-name="oe" unicode="&#x153;" 
 />
    <glyph glyph-name="Racute" unicode="&#x154;" 
 />
    <glyph glyph-name="racute" unicode="&#x155;" 
 />
    <glyph glyph-name="Rcaron" unicode="&#x158;" horiz-adv-x="1403" 
d="M966 1548l-269 -211h-39l-265 211l25 32l262 -125l261 125zM1342 0h-318l-364 559l-209 -2v-275q0 -135 23 -173q36 -61 171 -64v-45h-572v45q141 4 176 59q22 35 22 178v982h357q482 0 482 -315q0 -241 -285 -340l337 -486q33 -47 77 -61q4 -1 103 -17v-45zM916 922
q0 136 -87.5 211t-237.5 75h-107q-33 0 -33 -40v-555h125q164 0 252 80.5t88 228.5z" />
    <glyph glyph-name="rcaron" unicode="&#x159;" horiz-adv-x="1403" 
d="M966 1548l-269 -211h-39l-265 211l25 32l262 -125l261 125zM1342 0h-318l-364 559l-209 -2v-275q0 -135 23 -173q36 -61 171 -64v-45h-572v45q141 4 176 59q22 35 22 178v982h357q482 0 482 -315q0 -241 -285 -340l337 -486q33 -47 77 -61q4 -1 103 -17v-45zM916 922
q0 136 -87.5 211t-237.5 75h-107q-33 0 -33 -40v-555h125q164 0 252 80.5t88 228.5z" />
    <glyph glyph-name="Sacute" unicode="&#x15a;" 
 />
    <glyph glyph-name="sacute" unicode="&#x15b;" 
 />
    <glyph glyph-name="Scircumflex" unicode="&#x15c;" 
 />
    <glyph glyph-name="scircumflex" unicode="&#x15d;" 
 />
    <glyph glyph-name="Scedilla" unicode="&#x15e;" 
 />
    <glyph glyph-name="scedilla" unicode="&#x15f;" 
 />
    <glyph glyph-name="Scaron" unicode="&#x160;" horiz-adv-x="910" 
d="M821 1548l-269 -211h-39l-265 211l25 32l262 -125l261 125zM948 362q0 -177 -143 -287q-136 -104 -335 -104q-142 0 -322 70q-5 24 -62 293l54 8q71 -142 137 -208q99 -99 234 -99q267 0 267 251q0 129 -113 209q-31 22 -244 122q-162 77 -233 170q-48 63 -48 149
q0 165 133 265q124 93 310 93q67 0 260 -47q13 -96 39 -263l-55 -6q-61 251 -292 251q-105 0 -168.5 -60t-63.5 -155q0 -139 168 -223l310 -142q167 -103 167 -287z" />
    <glyph glyph-name="scaron" unicode="&#x161;" horiz-adv-x="910" 
d="M821 1548l-269 -211h-39l-265 211l25 32l262 -125l261 125zM948 362q0 -177 -143 -287q-136 -104 -335 -104q-142 0 -322 70q-5 24 -62 293l54 8q71 -142 137 -208q99 -99 234 -99q267 0 267 251q0 129 -113 209q-31 22 -244 122q-162 77 -233 170q-48 63 -48 149
q0 165 133 265q124 93 310 93q67 0 260 -47q13 -96 39 -263l-55 -6q-61 251 -292 251q-105 0 -168.5 -60t-63.5 -155q0 -139 168 -223l310 -142q167 -103 167 -287z" />
    <glyph glyph-name="Tcaron" unicode="&#x164;" horiz-adv-x="1177" 
d="M924 1548l-269 -211h-39l-265 211l25 32l262 -125l261 125zM1230 977l-54 -6q-33 146 -90 188t-224 42h-144v-919q0 -148 32 -186q40 -48 196 -51v-45h-628v45q153 3 191 52q29 37 29 185v919h-487v63h1162q0 -95 17 -287z" />
    <glyph glyph-name="tcaron" unicode="&#x165;" horiz-adv-x="1177" 
d="M924 1548l-269 -211h-39l-265 211l25 32l262 -125l261 125zM1230 977l-54 -6q-33 146 -90 188t-224 42h-144v-919q0 -148 32 -186q40 -48 196 -51v-45h-628v45q153 3 191 52q29 37 29 185v919h-487v63h1162q0 -95 17 -287z" />
    <glyph glyph-name="Tbar" unicode="&#x166;" 
 />
    <glyph glyph-name="tbar" unicode="&#x167;" 
 />
    <glyph glyph-name="Utilde" unicode="&#x168;" 
 />
    <glyph glyph-name="utilde" unicode="&#x169;" 
 />
    <glyph glyph-name="Umacron" unicode="&#x16a;" 
 />
    <glyph glyph-name="umacron" unicode="&#x16b;" 
 />
    <glyph glyph-name="Ubreve" unicode="&#x16c;" 
 />
    <glyph glyph-name="ubreve" unicode="&#x16d;" 
 />
    <glyph glyph-name="Uring" unicode="&#x16e;" horiz-adv-x="1396" 
d="M840 1493q0 -79 -62.5 -131t-150.5 -52q-84 0 -148 54t-64 129q0 78 62.5 128.5t149.5 50.5q91 0 152 -48.5t61 -130.5zM1339 1220q-164 -2 -185 -102q-13 -63 -17 -161q-3 -70 -2 -178q2 -165 2 -162q0 -646 -562 -646q-82 0 -180 23q-194 47 -274 194q-63 116 -63 319
v757h369v-44q-136 -2 -169 -62q-20 -34 -20 -176v-406q0 -511 400 -511q274 0 363 238q50 133 50 444q0 292 -18 372q-12 53 -53 75q-45 24 -157 26v44h516v-44zM743 1493q0 117 -116 117q-51 0 -83.5 -35t-32.5 -82q0 -45 33 -81q34 -39 83 -39q52 0 84 36t32 84z" />
    <glyph glyph-name="uring" unicode="&#x16f;" horiz-adv-x="1396" 
d="M840 1493q0 -79 -62.5 -131t-150.5 -52q-84 0 -148 54t-64 129q0 78 62.5 128.5t149.5 50.5q91 0 152 -48.5t61 -130.5zM1339 1220q-164 -2 -185 -102q-13 -63 -17 -161q-3 -70 -2 -178q2 -165 2 -162q0 -646 -562 -646q-82 0 -180 23q-194 47 -274 194q-63 116 -63 319
v757h369v-44q-136 -2 -169 -62q-20 -34 -20 -176v-406q0 -511 400 -511q274 0 363 238q50 133 50 444q0 292 -18 372q-12 53 -53 75q-45 24 -157 26v44h516v-44zM743 1493q0 117 -116 117q-51 0 -83.5 -35t-32.5 -82q0 -45 33 -81q34 -39 83 -39q52 0 84 36t32 84z" />
    <glyph glyph-name="Uogonek" unicode="&#x172;" 
 />
    <glyph glyph-name="uogonek" unicode="&#x173;" 
 />
    <glyph glyph-name="Wcircumflex" unicode="&#x174;" 
 />
    <glyph glyph-name="wcircumflex" unicode="&#x175;" 
 />
    <glyph glyph-name="Ycircumflex" unicode="&#x176;" 
 />
    <glyph glyph-name="ycircumflex" unicode="&#x177;" 
 />
    <glyph glyph-name="Ydieresis" unicode="&#x178;" 
 />
    <glyph glyph-name="Zacute" unicode="&#x179;" 
 />
    <glyph glyph-name="zacute" unicode="&#x17a;" 
 />
    <glyph glyph-name="Zcaron" unicode="&#x17d;" horiz-adv-x="1260" 
d="M966 1548l-269 -211h-39l-265 211l25 32l262 -125l261 125zM1260 312q-42 -203 -78 -312h-1122l-11 22l916 1179h-393q-191 0 -250 -39q-63 -41 -107 -201h-53q16 199 20 303h1018l11 -19l-908 -1169h620q31 0 82.5 15.5t73.5 32.5q70 54 127 199z" />
    <glyph glyph-name="zcaron" unicode="&#x17e;" horiz-adv-x="1260" 
d="M966 1548l-269 -211h-39l-265 211l25 32l262 -125l261 125zM1260 312q-42 -203 -78 -312h-1122l-11 22l916 1179h-393q-191 0 -250 -39q-63 -41 -107 -201h-53q16 199 20 303h1018l11 -19l-908 -1169h620q31 0 82.5 15.5t73.5 32.5q70 54 127 199z" />
    <glyph glyph-name="longs" unicode="&#x17f;" 
 />
    <glyph glyph-name="florin" unicode="&#x192;" 
 />
    <glyph glyph-name="Aringacute" unicode="&#x1fa;" 
 />
    <glyph glyph-name="aringacute" unicode="&#x1fb;" 
 />
    <glyph glyph-name="aeacute" unicode="&#x1fd;" 
 />
    <glyph glyph-name="Oslashacute" unicode="&#x1fe;" 
 />
    <glyph glyph-name="oslashacute" unicode="&#x1ff;" 
 />
    <glyph glyph-name="circumflex" unicode="&#x2c6;" 
 />
    <glyph glyph-name="caron" unicode="&#x2c7;" 
 />
    <glyph glyph-name="macron" unicode="&#x2c9;" 
 />
    <glyph glyph-name="breve" unicode="&#x2d8;" 
 />
    <glyph glyph-name="dotaccent" unicode="&#x2d9;" 
 />
    <glyph glyph-name="ring" unicode="&#x2da;" 
 />
    <glyph glyph-name="ogonek" unicode="&#x2db;" 
 />
    <glyph glyph-name="tilde" unicode="&#x2dc;" 
 />
    <glyph glyph-name="hungarumlaut" unicode="&#x2dd;" 
 />
    <glyph glyph-name="tonos" unicode="&#x384;" 
 />
    <glyph glyph-name="dieresistonos" unicode="&#x385;" 
 />
    <glyph glyph-name="Alphatonos" unicode="&#x386;" 
 />
    <glyph glyph-name="anoteleia" unicode="&#x387;" 
 />
    <glyph glyph-name="Epsilontonos" unicode="&#x388;" 
 />
    <glyph glyph-name="Etatonos" unicode="&#x389;" 
 />
    <glyph glyph-name="Iotatonos" unicode="&#x38a;" 
 />
    <glyph glyph-name="Omicrontonos" unicode="&#x38c;" 
 />
    <glyph glyph-name="Upsilontonos" unicode="&#x38e;" 
 />
    <glyph glyph-name="Omegatonos" unicode="&#x38f;" 
 />
    <glyph glyph-name="iotadieresistonos" unicode="&#x390;" 
 />
    <glyph glyph-name="Alpha" unicode="&#x391;" 
 />
    <glyph glyph-name="Beta" unicode="&#x392;" 
 />
    <glyph glyph-name="Gamma" unicode="&#x393;" 
 />
    <glyph glyph-name="Delta" 
 />
    <glyph glyph-name="Epsilon" unicode="&#x395;" 
 />
    <glyph glyph-name="Zeta" unicode="&#x396;" 
 />
    <glyph glyph-name="Eta" unicode="&#x397;" 
 />
    <glyph glyph-name="Theta" unicode="&#x398;" 
 />
    <glyph glyph-name="Theta" unicode="&#x472;" 
 />
    <glyph glyph-name="Iota" unicode="&#x399;" 
 />
    <glyph glyph-name="Kappa" unicode="&#x39a;" 
 />
    <glyph glyph-name="Lambda" unicode="&#x39b;" 
 />
    <glyph glyph-name="Mu" unicode="&#x39c;" 
 />
    <glyph glyph-name="Nu" unicode="&#x39d;" 
 />
    <glyph glyph-name="Xi" unicode="&#x39e;" 
 />
    <glyph glyph-name="Omicron" unicode="&#x39f;" 
 />
    <glyph glyph-name="Pi" unicode="&#x3a0;" 
 />
    <glyph glyph-name="Rho" unicode="&#x3a1;" 
 />
    <glyph glyph-name="Sigma" unicode="&#x3a3;" 
 />
    <glyph glyph-name="Tau" unicode="&#x3a4;" 
 />
    <glyph glyph-name="Upsilon" unicode="&#x3a5;" 
 />
    <glyph glyph-name="Phi" unicode="&#x3a6;" 
 />
    <glyph glyph-name="Chi" unicode="&#x3a7;" 
 />
    <glyph glyph-name="Psi" unicode="&#x3a8;" 
 />
    <glyph glyph-name="Psi" unicode="&#x470;" 
 />
    <glyph glyph-name="Omega" 
 />
    <glyph glyph-name="Iotadieresis" unicode="&#x3aa;" 
 />
    <glyph glyph-name="Upsilondieresis" unicode="&#x3ab;" 
 />
    <glyph glyph-name="alphatonos" unicode="&#x3ac;" 
 />
    <glyph glyph-name="epsilontonos" unicode="&#x3ad;" 
 />
    <glyph glyph-name="etatonos" unicode="&#x3ae;" 
 />
    <glyph glyph-name="iotatonos" unicode="&#x3af;" 
 />
    <glyph glyph-name="upsilondieresistonos" unicode="&#x3b0;" 
 />
    <glyph glyph-name="alpha" unicode="&#x3b1;" 
 />
    <glyph glyph-name="beta" unicode="&#x3b2;" 
 />
    <glyph glyph-name="gamma" unicode="&#x3b3;" 
 />
    <glyph glyph-name="delta" unicode="&#x3b4;" 
 />
    <glyph glyph-name="epsilon" unicode="&#x3b5;" 
 />
    <glyph glyph-name="zeta" unicode="&#x3b6;" 
 />
    <glyph glyph-name="eta" unicode="&#x3b7;" 
 />
    <glyph glyph-name="theta" unicode="&#x3b8;" 
 />
    <glyph glyph-name="theta" unicode="&#x473;" 
 />
    <glyph glyph-name="iota" unicode="&#x3b9;" 
 />
    <glyph glyph-name="kappa" unicode="&#x3ba;" 
 />
    <glyph glyph-name="lambda" unicode="&#x3bb;" 
 />
    <glyph glyph-name="mu" unicode="&#x3bc;" 
 />
    <glyph glyph-name="nu" unicode="&#x3bd;" 
 />
    <glyph glyph-name="xi" unicode="&#x3be;" 
 />
    <glyph glyph-name="omicron" unicode="&#x3bf;" 
 />
    <glyph glyph-name="pi" unicode="&#x3c0;" 
 />
    <glyph glyph-name="rho" unicode="&#x3c1;" 
 />
    <glyph glyph-name="sigma1" unicode="&#x3c2;" 
 />
    <glyph glyph-name="sigma" unicode="&#x3c3;" 
 />
    <glyph glyph-name="tau" unicode="&#x3c4;" 
 />
    <glyph glyph-name="upsilon" unicode="&#x3c5;" 
 />
    <glyph glyph-name="phi" unicode="&#x3c6;" 
 />
    <glyph glyph-name="chi" unicode="&#x3c7;" 
 />
    <glyph glyph-name="psi" unicode="&#x3c8;" 
 />
    <glyph glyph-name="psi" unicode="&#x471;" 
 />
    <glyph glyph-name="omega" unicode="&#x3c9;" 
 />
    <glyph glyph-name="iotadieresis" unicode="&#x3ca;" 
 />
    <glyph glyph-name="upsilondieresis" unicode="&#x3cb;" 
 />
    <glyph glyph-name="omicrontonos" unicode="&#x3cc;" 
 />
    <glyph glyph-name="upsilontonos" unicode="&#x3cd;" 
 />
    <glyph glyph-name="omegatonos" unicode="&#x3ce;" 
 />
    <glyph glyph-name="afii10023" unicode="&#x401;" 
 />
    <glyph glyph-name="afii10051" unicode="&#x402;" 
 />
    <glyph glyph-name="afii10052" unicode="&#x403;" 
 />
    <glyph glyph-name="afii10053" unicode="&#x404;" 
 />
    <glyph glyph-name="afii10054" unicode="&#x405;" 
 />
    <glyph glyph-name="afii10055" unicode="&#x406;" 
 />
    <glyph glyph-name="afii10056" unicode="&#x407;" 
 />
    <glyph glyph-name="afii10057" unicode="&#x408;" 
 />
    <glyph glyph-name="afii10058" unicode="&#x409;" 
 />
    <glyph glyph-name="afii10059" unicode="&#x40a;" 
 />
    <glyph glyph-name="afii10060" unicode="&#x40b;" 
 />
    <glyph glyph-name="afii10061" unicode="&#x40c;" 
 />
    <glyph glyph-name="afii10062" unicode="&#x40e;" 
 />
    <glyph glyph-name="afii10145" unicode="&#x40f;" 
 />
    <glyph glyph-name="afii10017" unicode="&#x410;" 
 />
    <glyph glyph-name="afii10018" unicode="&#x411;" 
 />
    <glyph glyph-name="afii10019" unicode="&#x412;" 
 />
    <glyph glyph-name="afii10020" unicode="&#x413;" 
 />
    <glyph glyph-name="afii10021" unicode="&#x414;" 
 />
    <glyph glyph-name="afii10022" unicode="&#x415;" 
 />
    <glyph glyph-name="afii10024" unicode="&#x416;" 
 />
    <glyph glyph-name="afii10025" unicode="&#x417;" 
 />
    <glyph glyph-name="afii10026" unicode="&#x418;" 
 />
    <glyph glyph-name="afii10027" unicode="&#x419;" 
 />
    <glyph glyph-name="afii10028" unicode="&#x41a;" 
 />
    <glyph glyph-name="afii10029" unicode="&#x41b;" 
 />
    <glyph glyph-name="afii10030" unicode="&#x41c;" 
 />
    <glyph glyph-name="afii10031" unicode="&#x41d;" 
 />
    <glyph glyph-name="afii10032" unicode="&#x41e;" 
 />
    <glyph glyph-name="afii10033" unicode="&#x41f;" 
 />
    <glyph glyph-name="afii10034" unicode="&#x420;" 
 />
    <glyph glyph-name="afii10035" unicode="&#x421;" 
 />
    <glyph glyph-name="afii10036" unicode="&#x422;" 
 />
    <glyph glyph-name="afii10037" unicode="&#x423;" 
 />
    <glyph glyph-name="afii10038" unicode="&#x424;" 
 />
    <glyph glyph-name="afii10039" unicode="&#x425;" 
 />
    <glyph glyph-name="afii10040" unicode="&#x426;" 
 />
    <glyph glyph-name="afii10041" unicode="&#x427;" 
 />
    <glyph glyph-name="afii10042" unicode="&#x428;" 
 />
    <glyph glyph-name="afii10043" unicode="&#x429;" 
 />
    <glyph glyph-name="afii10044" unicode="&#x42a;" 
 />
    <glyph glyph-name="afii10045" unicode="&#x42b;" 
 />
    <glyph glyph-name="afii10046" unicode="&#x42c;" 
 />
    <glyph glyph-name="afii10047" unicode="&#x42d;" 
 />
    <glyph glyph-name="afii10048" unicode="&#x42e;" 
 />
    <glyph glyph-name="afii10049" unicode="&#x42f;" 
 />
    <glyph glyph-name="afii10065" unicode="&#x430;" 
 />
    <glyph glyph-name="afii10066" unicode="&#x431;" 
 />
    <glyph glyph-name="afii10067" unicode="&#x432;" 
 />
    <glyph glyph-name="afii10068" unicode="&#x433;" 
 />
    <glyph glyph-name="afii10069" unicode="&#x434;" 
 />
    <glyph glyph-name="afii10070" unicode="&#x435;" 
 />
    <glyph glyph-name="afii10072" unicode="&#x436;" 
 />
    <glyph glyph-name="afii10073" unicode="&#x437;" 
 />
    <glyph glyph-name="afii10074" unicode="&#x438;" 
 />
    <glyph glyph-name="afii10075" unicode="&#x439;" 
 />
    <glyph glyph-name="afii10076" unicode="&#x43a;" 
 />
    <glyph glyph-name="afii10077" unicode="&#x43b;" 
 />
    <glyph glyph-name="afii10078" unicode="&#x43c;" 
 />
    <glyph glyph-name="afii10079" unicode="&#x43d;" 
 />
    <glyph glyph-name="afii10080" unicode="&#x43e;" 
 />
    <glyph glyph-name="afii10081" unicode="&#x43f;" 
 />
    <glyph glyph-name="afii10082" unicode="&#x440;" 
 />
    <glyph glyph-name="afii10083" unicode="&#x441;" 
 />
    <glyph glyph-name="afii10084" unicode="&#x442;" 
 />
    <glyph glyph-name="afii10085" unicode="&#x443;" 
 />
    <glyph glyph-name="afii10086" unicode="&#x444;" 
 />
    <glyph glyph-name="afii10087" unicode="&#x445;" 
 />
    <glyph glyph-name="afii10088" unicode="&#x446;" 
 />
    <glyph glyph-name="afii10089" unicode="&#x447;" 
 />
    <glyph glyph-name="afii10090" unicode="&#x448;" 
 />
    <glyph glyph-name="afii10091" unicode="&#x449;" 
 />
    <glyph glyph-name="afii10092" unicode="&#x44a;" 
 />
    <glyph glyph-name="afii10093" unicode="&#x44b;" 
 />
    <glyph glyph-name="afii10094" unicode="&#x44c;" 
 />
    <glyph glyph-name="afii10095" unicode="&#x44d;" 
 />
    <glyph glyph-name="afii10096" unicode="&#x44e;" 
 />
    <glyph glyph-name="afii10097" unicode="&#x44f;" 
 />
    <glyph glyph-name="afii10071" unicode="&#x451;" 
 />
    <glyph glyph-name="afii10099" unicode="&#x452;" 
 />
    <glyph glyph-name="afii10100" unicode="&#x453;" 
 />
    <glyph glyph-name="afii10101" unicode="&#x454;" 
 />
    <glyph glyph-name="afii10102" unicode="&#x455;" 
 />
    <glyph glyph-name="afii10103" unicode="&#x456;" 
 />
    <glyph glyph-name="afii10104" unicode="&#x457;" 
 />
    <glyph glyph-name="afii10105" unicode="&#x458;" 
 />
    <glyph glyph-name="afii10106" unicode="&#x459;" 
 />
    <glyph glyph-name="afii10107" unicode="&#x45a;" 
 />
    <glyph glyph-name="afii10108" unicode="&#x45b;" 
 />
    <glyph glyph-name="afii10109" unicode="&#x45c;" 
 />
    <glyph glyph-name="afii10110" unicode="&#x45e;" 
 />
    <glyph glyph-name="afii10193" unicode="&#x45f;" 
 />
    <glyph glyph-name="afii10050" unicode="&#x490;" 
 />
    <glyph glyph-name="afii10098" unicode="&#x491;" 
 />
    <glyph glyph-name="Wgrave" unicode="&#x1e80;" 
 />
    <glyph glyph-name="wgrave" unicode="&#x1e81;" 
 />
    <glyph glyph-name="Wacute" unicode="&#x1e82;" 
 />
    <glyph glyph-name="wacute" unicode="&#x1e83;" 
 />
    <glyph glyph-name="Wdieresis" unicode="&#x1e84;" 
 />
    <glyph glyph-name="wdieresis" unicode="&#x1e85;" 
 />
    <glyph glyph-name="Ygrave" unicode="&#x1ef2;" 
 />
    <glyph glyph-name="ygrave" unicode="&#x1ef3;" 
 />
    <glyph glyph-name="endash" unicode="&#x2013;" 
 />
    <glyph glyph-name="underscoredbl" unicode="&#x2017;" 
 />
    <glyph glyph-name="quoteleft" unicode="&#x2018;" 
 />
    <glyph glyph-name="quoteright" unicode="&#x2019;" 
 />
    <glyph glyph-name="quotesinglbase" unicode="&#x201a;" 
 />
    <glyph glyph-name="quotereversed" unicode="&#x201b;" 
 />
    <glyph glyph-name="quotedblleft" unicode="&#x201c;" 
 />
    <glyph glyph-name="quotedblright" unicode="&#x201d;" 
 />
    <glyph glyph-name="quotedblbase" unicode="&#x201e;" 
 />
    <glyph glyph-name="dagger" unicode="&#x2020;" 
 />
    <glyph glyph-name="daggerdbl" unicode="&#x2021;" 
 />
    <glyph glyph-name="bullet" unicode="&#x2022;" horiz-adv-x="500" 
d="M535 646q0 -85 -61.5 -144.5t-155.5 -59.5q-91 0 -156 61t-65 143q0 81 65.5 142.5t155.5 61.5q93 0 155 -60t62 -144z" />
    <glyph glyph-name="ellipsis" unicode="&#x2026;" horiz-adv-x="2039" 
d="M1916 91q0 -49 -35 -82t-90 -33q-51 0 -87 34t-36 81q0 49 35 82t88 33q57 0 91 -31.5t34 -83.5zM1200 91q0 -49 -35 -82t-90 -33q-51 0 -87 34t-36 81q0 49 35 82t88 33q57 0 91 -31.5t34 -83.5zM484 91q0 -49 -35 -82t-90 -33q-52 0 -87.5 34t-35.5 81q0 49 35 82
t88 33q57 0 91 -31.5t34 -83.5z" />
    <glyph glyph-name="minute" unicode="&#x2032;" 
 />
    <glyph glyph-name="second" unicode="&#x2033;" 
 />
    <glyph glyph-name="guilsinglleft" unicode="&#x2039;" 
 />
    <glyph glyph-name="guilsinglright" unicode="&#x203a;" 
 />
    <glyph glyph-name="exclamdbl" unicode="&#x203c;" 
 />
    <glyph glyph-name="fraction" unicode="&#x2044;" 
 />
    <glyph glyph-name="franc" unicode="&#x20a3;" 
 />
    <glyph glyph-name="peseta" unicode="&#x20a7;" 
 />
    <glyph glyph-name="afii61248" unicode="&#x2105;" 
 />
    <glyph glyph-name="afii61289" unicode="&#x2113;" 
 />
    <glyph glyph-name="afii61352" unicode="&#x2116;" 
 />
    <glyph glyph-name="trademark" unicode="&#x2122;" horiz-adv-x="1390" 
d="M1445 1244q-60 -1 -76 -17t-16 -77q0 -9 15 -483h-179v22q64 2 78 23q9 14 9 79q0 4 -3 379h-6l-247 -493h-27l-234 481h-2q-13 -322 -13 -363q0 -66 17 -84t81 -22v-22h-238v22q75 4 85 47q11 52 18 175l17 353h66l245 -473l242 473h168v-20zM630 1127l-25 -3
q-17 71 -47 91q-26 17 -100 17h-67v-431q0 -71 17.5 -90.5t88.5 -20.5v-21h-294v21q69 2 86 20.5t17 90.5v431h-228v30h544q0 -45 8 -135z" />
    <glyph glyph-name="estimated" unicode="&#x212e;" 
 />
    <glyph glyph-name="oneeighth" unicode="&#x215b;" 
 />
    <glyph glyph-name="threeeighths" unicode="&#x215c;" 
 />
    <glyph glyph-name="fiveeighths" unicode="&#x215d;" 
 />
    <glyph glyph-name="seveneighths" unicode="&#x215e;" 
 />
    <glyph glyph-name="arrowup" unicode="&#x2191;" 
 />
    <glyph glyph-name="arrowdown" unicode="&#x2193;" 
 />
    <glyph glyph-name="arrowupdn" unicode="&#x2195;" 
 />
    <glyph glyph-name="arrowupdnbse" unicode="&#x21a8;" 
 />
    <glyph glyph-name="partialdiff" unicode="&#x2202;" 
 />
    <glyph glyph-name="product" unicode="&#x220f;" 
 />
    <glyph glyph-name="summation" unicode="&#x2211;" 
 />
    <glyph glyph-name="minus" unicode="&#xad;" 
 />
    <glyph glyph-name="minus" unicode="&#x2212;" 
 />
    <glyph glyph-name="periodcentered" unicode="&#xb7;" 
 />
    <glyph glyph-name="periodcentered" unicode="&#x2219;" 
 />
    <glyph glyph-name="radical" unicode="&#x221a;" 
 />
    <glyph glyph-name="infinity" unicode="&#x221e;" 
 />
    <glyph glyph-name="orthogonal" unicode="&#x221f;" 
 />
    <glyph glyph-name="intersection" unicode="&#x2229;" 
 />
    <glyph glyph-name="integral" unicode="&#x222b;" 
 />
    <glyph glyph-name="approxequal" unicode="&#x2248;" 
 />
    <glyph glyph-name="approxequal" unicode="&#x22f2;" 
 />
    <glyph glyph-name="notequal" unicode="&#x2260;" 
 />
    <glyph glyph-name="equivalence" unicode="&#x2261;" 
 />
    <glyph glyph-name="lessequal" unicode="&#x2264;" 
 />
    <glyph glyph-name="greaterequal" unicode="&#x2265;" 
 />
    <glyph glyph-name="house" unicode="&#x2302;" 
 />
    <glyph glyph-name="revlogicalnot" unicode="&#x2310;" 
 />
    <glyph glyph-name="integraltp" unicode="&#x2320;" 
 />
    <glyph glyph-name="integralbt" unicode="&#x2321;" 
 />
    <glyph glyph-name="SF100000" unicode="&#x2500;" 
 />
    <glyph glyph-name="SF110000" unicode="&#x2502;" 
 />
    <glyph glyph-name="SF010000" unicode="&#x250c;" 
 />
    <glyph glyph-name="SF030000" unicode="&#x2510;" 
 />
    <glyph glyph-name="SF020000" unicode="&#x2514;" 
 />
    <glyph glyph-name="SF040000" unicode="&#x2518;" 
 />
    <glyph glyph-name="SF080000" unicode="&#x251c;" 
 />
    <glyph glyph-name="SF090000" unicode="&#x2524;" 
 />
    <glyph glyph-name="SF060000" unicode="&#x252c;" 
 />
    <glyph glyph-name="SF070000" unicode="&#x2534;" 
 />
    <glyph glyph-name="SF050000" unicode="&#x253c;" 
 />
    <glyph glyph-name="SF430000" unicode="&#x2550;" 
 />
    <glyph glyph-name="SF240000" unicode="&#x2551;" 
 />
    <glyph glyph-name="SF510000" unicode="&#x2552;" 
 />
    <glyph glyph-name="SF520000" unicode="&#x2553;" 
 />
    <glyph glyph-name="SF390000" unicode="&#x2554;" 
 />
    <glyph glyph-name="SF220000" unicode="&#x2555;" 
 />
    <glyph glyph-name="SF210000" unicode="&#x2556;" 
 />
    <glyph glyph-name="SF250000" unicode="&#x2557;" 
 />
    <glyph glyph-name="SF500000" unicode="&#x2558;" 
 />
    <glyph glyph-name="SF490000" unicode="&#x2559;" 
 />
    <glyph glyph-name="SF380000" unicode="&#x255a;" 
 />
    <glyph glyph-name="SF280000" unicode="&#x255b;" 
 />
    <glyph glyph-name="SF270000" unicode="&#x255c;" 
 />
    <glyph glyph-name="SF260000" unicode="&#x255d;" 
 />
    <glyph glyph-name="SF360000" unicode="&#x255e;" 
 />
    <glyph glyph-name="SF370000" unicode="&#x255f;" 
 />
    <glyph glyph-name="SF420000" unicode="&#x2560;" 
 />
    <glyph glyph-name="SF190000" unicode="&#x2561;" 
 />
    <glyph glyph-name="SF200000" unicode="&#x2562;" 
 />
    <glyph glyph-name="SF230000" unicode="&#x2563;" 
 />
    <glyph glyph-name="SF470000" unicode="&#x2564;" 
 />
    <glyph glyph-name="SF480000" unicode="&#x2565;" 
 />
    <glyph glyph-name="SF410000" unicode="&#x2566;" 
 />
    <glyph glyph-name="SF450000" unicode="&#x2567;" 
 />
    <glyph glyph-name="SF460000" unicode="&#x2568;" 
 />
    <glyph glyph-name="SF400000" unicode="&#x2569;" 
 />
    <glyph glyph-name="SF540000" unicode="&#x256a;" 
 />
    <glyph glyph-name="SF530000" unicode="&#x256b;" 
 />
    <glyph glyph-name="SF440000" unicode="&#x256c;" 
 />
    <glyph glyph-name="upblock" unicode="&#x2580;" 
 />
    <glyph glyph-name="dnblock" unicode="&#x2584;" 
 />
    <glyph glyph-name="block" unicode="&#x2588;" 
 />
    <glyph glyph-name="lfblock" unicode="&#x258c;" 
 />
    <glyph glyph-name="rtblock" unicode="&#x2590;" 
 />
    <glyph glyph-name="ltshade" unicode="&#x2591;" 
 />
    <glyph glyph-name="shade" unicode="&#x2592;" 
 />
    <glyph glyph-name="dkshade" unicode="&#x2593;" 
 />
    <glyph glyph-name="filledbox" unicode="&#x25a0;" 
 />
    <glyph glyph-name="H22073" unicode="&#x25a1;" 
 />
    <glyph glyph-name="H18543" unicode="&#x25aa;" 
 />
    <glyph glyph-name="H18551" unicode="&#x25ab;" 
 />
    <glyph glyph-name="triagup" unicode="&#x25b2;" 
 />
    <glyph glyph-name="triagrt" unicode="&#x25ba;" 
 />
    <glyph glyph-name="triagdn" unicode="&#x25bc;" 
 />
    <glyph glyph-name="triaglf" unicode="&#x25c4;" 
 />
    <glyph glyph-name="lozenge" unicode="&#x25ca;" 
 />
    <glyph glyph-name="circle" unicode="&#x25cb;" 
 />
    <glyph glyph-name="H18533" unicode="&#x25cf;" 
 />
    <glyph glyph-name="invbullet" unicode="&#x25d8;" 
 />
    <glyph glyph-name="invcircle" unicode="&#x25d9;" 
 />
    <glyph glyph-name="openbullet" unicode="&#x25e6;" 
 />
    <glyph glyph-name="smileface" unicode="&#x263a;" 
 />
    <glyph glyph-name="invsmileface" unicode="&#x263b;" 
 />
    <glyph glyph-name="sun" unicode="&#x263c;" 
 />
    <glyph glyph-name="female" unicode="&#x2640;" 
 />
    <glyph glyph-name="male" unicode="&#x2642;" 
 />
    <glyph glyph-name="spade" unicode="&#x2660;" 
 />
    <glyph glyph-name="club" unicode="&#x2663;" 
 />
    <glyph glyph-name="heart" unicode="&#x2665;" 
 />
    <glyph glyph-name="diamond" unicode="&#x2666;" 
 />
    <glyph glyph-name="musicalnote" unicode="&#x266a;" 
 />
    <glyph glyph-name="musicalnotedbl" unicode="&#x266b;" 
 />
    <glyph glyph-name="glyph601" 
 />
    <glyph glyph-name="glyph602" 
 />
    <glyph glyph-name="glyph601" 
 />
    <glyph glyph-name="glyph602" 
 />
    <glyph glyph-name="uni00B2" unicode="&#xb2;" 
 />
    <glyph glyph-name="uni00B3" unicode="&#xb3;" 
 />
    <glyph glyph-name="uni00B9" unicode="&#xb9;" 
 />
    <glyph glyph-name="ch185" 
 />
    <glyph glyph-name="glyph607" unicode="&#xa0;" 
 />
    <glyph glyph-name="Euro" unicode="&#x20ac;" horiz-adv-x="1044" 
d="M1060 1238q-18 -97 -35 -263l-5 -8h-58l-7 8l-8 163q-64 123 -265 123q-191 0 -299 -159q-86 -127 -101 -318h539l8 -11l-5 -53l-9 -9h-537l-1 -51q0 -26 1 -58h520l8 -10l-5 -53l-9 -10h-507q11 -188 112 -318q117 -151 312 -151q156 0 284 71l16 -21l-30 -73
q-135 -75 -322 -75q-530 0 -586 567h-98l-8 10l6 53l8 10h87q-2 65 1 109h-94l-8 9l6 53l8 11h99q33 224 202 383q180 171 421 171q222 0 354 -91z" />
    <glyph glyph-name="uniF001" unicode="&#xf001;" 
 />
    <glyph glyph-name="uniF002" unicode="&#xf002;" 
 />
    <glyph glyph-name="uni02C9" unicode="&#xaf;" 
 />
    <glyph glyph-name="Idotaccent" unicode="&#x130;" 
 />
    <glyph glyph-name="Cdotaccent" unicode="&#x10a;" 
 />
    <glyph glyph-name="cdotaccent" unicode="&#x10b;" 
 />
    <glyph glyph-name="Dcroat" unicode="&#x110;" 
 />
    <glyph glyph-name="Edotaccent" unicode="&#x116;" 
 />
    <glyph glyph-name="edotaccent" unicode="&#x117;" 
 />
    <glyph glyph-name="Gdotaccent" unicode="&#x120;" 
 />
    <glyph glyph-name="gdotaccent" unicode="&#x121;" 
 />
    <glyph glyph-name="Gcommaaccent" unicode="&#x122;" 
 />
    <glyph glyph-name="gcommaaccent" unicode="&#x123;" 
 />
    <glyph glyph-name="Kcommaaccent" unicode="&#x136;" 
 />
    <glyph glyph-name="kcommaaccent" unicode="&#x137;" 
 />
    <glyph glyph-name="Lcommaaccent" unicode="&#x13b;" 
 />
    <glyph glyph-name="lcommaaccent" unicode="&#x13c;" 
 />
    <glyph glyph-name="Ncommaaccent" unicode="&#x145;" 
 />
    <glyph glyph-name="ncommaaccent" unicode="&#x146;" 
 />
    <glyph glyph-name="Ohungarumlaut" unicode="&#x150;" 
 />
    <glyph glyph-name="ohungarumlaut" unicode="&#x151;" 
 />
    <glyph glyph-name="Rcommaaccent" unicode="&#x156;" 
 />
    <glyph glyph-name="rcommaaccent" unicode="&#x157;" 
 />
    <glyph glyph-name="Tcommaaccent" unicode="&#x162;" 
 />
    <glyph glyph-name="tcommaaccent" unicode="&#x163;" 
 />
    <glyph glyph-name="Uhungarumlaut" unicode="&#x170;" 
 />
    <glyph glyph-name="uhungarumlaut" unicode="&#x171;" 
 />
    <glyph glyph-name="Zdotaccent" unicode="&#x17b;" 
 />
    <glyph glyph-name="zdotaccent" unicode="&#x17c;" 
 />
    <glyph glyph-name="uni0394" unicode="&#x394;" 
 />
    <glyph glyph-name="uni0394" unicode="&#x2206;" 
 />
    <glyph glyph-name="uni03A9" unicode="&#x3a9;" 
 />
    <glyph glyph-name="uni03A9" unicode="&#x2126;" 
 />
    <glyph glyph-name="uni03BC" unicode="&#xb5;" 
 />
    <glyph glyph-name="uni203E" unicode="&#x203e;" 
 />
    <glyph glyph-name="uni207F" unicode="&#x207f;" 
 />
    <glyph glyph-name="lira" unicode="&#x20a4;" 
 />
    <glyph glyph-name="uniF004" unicode="&#xf004;" 
 />
    <glyph glyph-name="uniF005" unicode="&#xf005;" 
 />
    </font>
</defs>
</svg>
